<?xml version="1.0" encoding="UTF-8" standalone="no"?>
<!DOCTYPE svg PUBLIC "-//W3C//DTD SVG 1.1//EN" "http://www.w3.org/Graphics/SVG/1.1/DTD/svg11.dtd">
<svg width="100%" height="100%" viewBox="0 0 2550 3300" version="1.1" xmlns="http://www.w3.org/2000/svg" xmlns:xlink="http://www.w3.org/1999/xlink" xml:space="preserve" xmlns:serif="http://www.serif.com/" style="fill-rule:evenodd;clip-rule:evenodd;stroke-linejoin:round;stroke-miterlimit:1.41421;">
    <path d="M453.972,415.285L454.267,415.287L454.562,415.29L454.855,415.293L455.147,415.298L455.438,415.304L455.728,415.311L456.016,415.32L456.303,415.329L456.589,415.34L456.873,415.352L457.157,415.365L457.439,415.379L457.72,415.395L457.999,415.412L458.278,415.431L458.555,415.45L458.831,415.472L459.107,415.494L459.38,415.519L459.653,415.544L459.925,415.571L460.195,415.6L460.465,415.631L460.733,415.663L461,415.697L461.267,415.733L461.533,415.77L461.798,415.81L462.063,415.851L462.326,415.895L462.589,415.941L462.851,415.989L463.113,416.039L463.374,416.092L463.635,416.148L463.896,416.206L464.156,416.266L464.416,416.33L464.676,416.397L464.937,416.467L465.197,416.54L465.458,416.617L465.719,416.698L465.981,416.783L466.243,416.872L466.506,416.966L466.77,417.065L467.034,417.169L467.299,417.278L467.566,417.393L467.834,417.515L468.103,417.643L468.372,417.778L468.644,417.921L468.896,418.061L469.051,418.15L469.188,418.231L469.326,418.315L469.463,418.401L469.601,418.489L469.74,418.581L469.876,418.673L470.014,418.769L470.153,418.869L470.291,418.971L470.428,419.074L470.566,419.182L470.704,419.293L470.843,419.408L470.979,419.525L471.116,419.645L471.253,419.77L471.389,419.897L471.524,420.028L471.658,420.163L471.792,420.301L471.909,420.427L472.048,420.58L472.172,420.717L472.295,420.856L472.418,420.995L472.539,421.135L472.66,421.276L472.78,421.418L472.901,421.561L473.019,421.704L473.137,421.848L473.255,421.993L473.371,422.139L473.488,422.286L473.604,422.434L473.719,422.582L473.839,422.739L474.06,423.031L474.285,423.335L474.508,423.642L474.728,423.952L474.947,424.265L475.163,424.581L475.377,424.901L475.59,425.224L475.801,425.55L476.01,425.879L476.217,426.211L476.423,426.546L476.626,426.884L476.829,427.225L477.03,427.57L477.23,427.918L477.428,428.269L477.624,428.623L477.819,428.98L478.013,429.34L478.206,429.704L478.397,430.07L478.587,430.44L478.776,430.813L478.964,431.188L479.151,431.567L479.336,431.95L479.521,432.335L479.704,432.724L479.887,433.115L480.068,433.509L480.248,433.907L480.428,434.309L480.606,434.712L480.784,435.12L480.96,435.53L481.136,435.943L481.311,436.36L481.485,436.779L481.658,437.202L481.83,437.628L482.002,438.057L482.172,438.489L482.342,438.924L482.511,439.362L482.68,439.803L482.847,440.247L483.014,440.695L483.18,441.145L483.346,441.599L483.51,442.055L483.674,442.515L483.838,442.977L484,443.443L484.162,443.911L484.323,444.383L484.484,444.857L484.644,445.335L484.803,445.816L484.962,446.299L485.12,446.786L485.277,447.275L485.434,447.767L485.591,448.263L485.746,448.761L485.901,449.262L486.056,449.766L486.21,450.273L486.363,450.783L486.515,451.295L486.668,451.811L486.819,452.329L486.97,452.851L487.121,453.375L487.271,453.902L487.42,454.432L487.569,454.964L487.717,455.499L487.865,456.037L488.012,456.578L488.159,457.122L488.305,457.668L488.451,458.217L488.596,458.769L488.741,459.323L488.885,459.881L489.028,460.44L489.172,461.003L489.314,461.568L489.457,462.136L489.598,462.706L489.739,463.279L489.88,463.855L490.02,464.433L490.16,465.014L490.299,465.597L490.438,466.183L490.577,466.772L490.715,467.363L490.852,467.956L490.989,468.553L491.125,469.151L491.262,469.752L491.397,470.355L491.532,470.961L491.667,471.569L491.801,472.18L491.935,472.793L492.068,473.409L492.201,474.026L492.334,474.647L492.466,475.269L492.598,475.894L492.729,476.522L492.86,477.151L492.99,477.783L493.12,478.417L493.249,479.053L493.378,479.692L493.507,480.333L493.635,480.976L493.763,481.621L493.89,482.269L494.017,482.918L494.144,483.57L494.27,484.224L494.396,484.88L494.521,485.538L494.646,486.198L494.771,486.861L494.895,487.525L495.019,488.194L495.265,489.531L495.509,490.878L495.753,492.233L495.994,493.596L496.234,494.966L496.473,496.344L496.71,497.73L496.945,499.123L497.179,500.523L497.411,501.93L497.642,503.344L497.872,504.765L498.1,506.193L498.326,507.627L498.552,509.068L498.775,510.515L498.998,511.968L499.218,513.428L499.438,514.893L499.656,516.365L499.873,517.842L500.088,519.324L500.302,520.812L500.515,522.306L500.726,523.804L500.936,525.308L501.144,526.817L501.352,528.33L501.558,529.848L501.762,531.371L501.966,532.898L502.168,534.43L502.368,535.966L502.568,537.506L502.766,539.05L502.963,540.597L503.159,542.149L503.354,543.704L503.547,545.263L503.739,546.824L503.93,548.389L504.12,549.957L504.308,551.528L504.496,553.102L504.682,554.679L504.867,556.258L505.051,557.839L505.233,559.423L505.415,561.009L505.595,562.597L505.775,564.187L505.953,565.779L506.13,567.372L506.306,568.967L506.481,570.563L506.654,572.161L506.827,573.76L506.999,575.36L507.169,576.96L507.339,578.562L507.507,580.164L507.675,581.766L507.841,583.369L508.007,584.973L508.171,586.576L508.334,588.179L508.497,589.782L508.658,591.385L508.819,592.988L508.978,594.59L509.136,596.191L509.294,597.791L509.45,599.391L509.606,600.99L509.761,602.587L509.914,604.183L510.067,605.778L510.219,607.372L510.52,610.552L510.818,613.725L511.112,616.889L511.402,620.043L511.69,623.187L511.973,626.318L512.254,629.437L512.532,632.541L512.806,635.63L513.077,638.703L513.345,641.759L513.611,644.797L513.873,647.816L514.133,650.814L514.389,653.791L514.643,656.745L515.144,662.582L516.114,673.941L516.586,679.447L516.818,682.152L517.048,684.824L517.276,687.463L517.503,690.066L517.727,692.633L517.949,695.163L518.17,697.654L518.388,700.106L518.605,702.518L518.821,704.888L519.034,707.216L519.247,709.499L519.457,711.74L519.562,712.841L519.666,713.931L519.77,715.01L519.874,716.077L519.978,717.132L520.081,718.175L520.183,719.205L520.286,720.223L520.388,721.229L520.489,722.221L520.591,723.201L520.692,724.167L520.793,725.12L520.893,726.061L520.994,726.987L521.094,727.9L521.193,728.799L521.293,729.684L521.392,730.555L521.491,731.411L521.589,732.253L521.687,733.081L521.785,733.893L521.883,734.691L521.98,735.474L522.077,736.241L522.174,736.993L522.271,737.729L522.367,738.449L522.463,739.153L522.558,739.841L522.654,740.512L522.748,741.166L522.844,741.812L523.011,742.927L523.178,744.049L523.344,745.17L523.509,746.291L523.672,747.411L523.835,748.529L523.997,749.647L524.158,750.765L524.318,751.882L524.477,752.997L524.634,754.113L524.791,755.227L524.947,756.341L525.101,757.454L525.255,758.567L525.407,759.679L525.559,760.79L525.709,761.9L525.859,763.011L526.007,764.12L526.154,765.229L526.3,766.338L526.445,767.446L526.589,768.553L526.731,769.66L526.873,770.767L527.013,771.873L527.153,772.978L527.291,774.083L527.428,775.188L527.564,776.292L527.699,777.397L527.832,778.5L527.965,779.603L528.096,780.706L528.226,781.809L528.355,782.911L528.483,784.013L528.61,785.115L528.735,786.217L528.86,787.318L528.983,788.419L529.105,789.52L529.225,790.621L529.345,791.721L529.463,792.822L529.58,793.922L529.696,795.022L529.81,796.122L529.923,797.222L530.036,798.322L530.146,799.422L530.256,800.521L530.364,801.621L530.471,802.721L530.577,803.82L530.682,804.92L530.785,806.02L530.887,807.119L530.987,808.219L531.087,809.319L531.185,810.419L531.281,811.519L531.377,812.62L531.471,813.72L531.564,814.821L531.655,815.921L531.745,817.022L531.834,818.123L531.922,819.225L532.008,820.326L532.092,821.428L532.176,822.53L532.258,823.632L532.339,824.735L532.418,825.838L532.496,826.941L532.572,828.045L532.647,829.149L532.721,830.253L532.793,831.358L532.864,832.463L532.934,833.568L533.002,834.674L533.069,835.781L533.134,836.888L533.198,837.995L533.26,839.103L533.321,840.211L533.381,841.32L533.439,842.43L533.496,843.54L533.551,844.65L533.604,845.761L533.657,846.874L533.707,847.986L533.757,849.099L533.804,850.213L533.851,851.327L533.896,852.442L533.939,853.558L533.981,854.674L534.021,855.791L534.06,856.909L534.097,858.028L534.133,859.147L534.167,860.268L534.199,861.389L534.23,862.511L534.26,863.633L534.288,864.757L534.314,865.881L534.339,867.007L534.363,868.133L534.384,869.26L534.404,870.388L534.423,871.517L534.44,872.647L534.455,873.778L534.469,874.91L534.481,876.043L534.492,877.176L534.501,878.312L534.508,879.447L534.514,880.584L534.518,881.723L534.521,882.862L534.521,883.999L534.521,887.904L534.039,890.64L532.65,893.046L530.521,894.832L527.911,895.782L525.132,895.782L522.521,894.832L520.393,893.046L519.004,890.64L518.521,887.904L518.521,884.005L518.521,882.885L518.518,881.769L518.514,880.654L518.508,879.539L518.501,878.426L518.493,877.314L518.482,876.203L518.47,875.093L518.457,873.984L518.442,872.876L518.425,871.769L518.407,870.662L518.387,869.557L518.366,868.453L518.343,867.349L518.319,866.246L518.293,865.144L518.265,864.043L518.236,862.942L518.206,861.843L518.174,860.744L518.14,859.646L518.105,858.549L518.069,857.453L518.031,856.357L517.991,855.261L517.95,854.167L517.908,853.073L517.864,851.98L517.819,850.887L517.772,849.796L517.723,848.704L517.674,847.613L517.623,846.523L517.57,845.434L517.516,844.344L517.46,843.255L517.403,842.167L517.345,841.08L517.285,839.992L517.224,838.906L517.161,837.819L517.097,836.733L517.032,835.648L516.965,834.562L516.897,833.478L516.827,832.393L516.756,831.309L516.684,830.225L516.61,829.141L516.535,828.058L516.458,826.975L516.38,825.892L516.301,824.81L516.221,823.727L516.139,822.645L516.056,821.563L515.971,820.481L515.885,819.4L515.798,818.318L515.709,817.236L515.619,816.155L515.528,815.074L515.436,813.992L515.342,812.912L515.247,811.83L515.151,810.749L515.053,809.668L514.954,808.587L514.854,807.505L514.752,806.424L514.65,805.343L514.546,804.262L514.44,803.18L514.334,802.098L514.226,801.017L514.117,799.935L514.007,798.853L513.895,797.77L513.783,796.688L513.669,795.605L513.553,794.522L513.437,793.439L513.32,792.356L513.201,791.272L513.081,790.188L512.96,789.104L512.837,788.019L512.714,786.934L512.589,785.849L512.463,784.763L512.336,783.677L512.208,782.59L512.078,781.503L511.947,780.416L511.816,779.328L511.683,778.24L511.549,777.151L511.414,776.061L511.277,774.971L511.14,773.881L511.001,772.79L510.862,771.698L510.721,770.606L510.579,769.513L510.436,768.42L510.292,767.326L510.147,766.231L510,765.136L509.853,764.04L509.704,762.943L509.555,761.846L509.404,760.748L509.253,759.649L509.1,758.549L508.946,757.448L508.791,756.347L508.635,755.245L508.478,754.142L508.32,753.038L508.161,751.934L508.001,750.828L507.84,749.722L507.678,748.614L507.515,747.506L507.351,746.397L507.186,745.287L507.018,744.167L506.917,743.486L506.816,742.783L506.714,742.065L506.612,741.333L506.511,740.588L506.409,739.828L506.308,739.055L506.206,738.267L506.105,737.466L506.003,736.651L505.902,735.823L505.801,734.982L505.699,734.126L505.597,733.258L505.496,732.376L505.394,731.481L505.292,730.573L505.19,729.652L505.088,728.718L504.985,727.772L504.883,726.813L504.78,725.841L504.677,724.857L504.574,723.861L504.47,722.852L504.367,721.832L504.263,720.799L504.159,719.755L504.054,718.699L503.95,717.631L503.845,716.552L503.74,715.462L503.634,714.36L503.528,713.246L503.316,710.989L503.102,708.687L502.887,706.343L502.67,703.959L502.452,701.534L502.232,699.07L502.011,696.568L501.788,694.029L501.563,691.454L501.336,688.844L501.108,686.2L500.877,683.523L500.644,680.814L500.173,675.305L499.202,663.946L498.702,658.114L498.448,655.164L498.192,652.191L497.933,649.199L497.671,646.186L497.406,643.155L497.139,640.106L496.868,637.041L496.595,633.961L496.318,630.866L496.038,627.758L495.755,624.637L495.469,621.505L495.18,618.363L494.887,615.212L494.591,612.052L494.291,608.885L494.14,607.3L493.988,605.713L493.835,604.125L493.681,602.536L493.526,600.945L493.37,599.354L493.214,597.762L493.056,596.17L492.898,594.577L492.738,592.983L492.578,591.39L492.416,589.796L492.254,588.203L492.091,586.609L491.926,585.016L491.761,583.424L491.595,581.832L491.427,580.241L491.259,578.65L491.09,577.061L490.919,575.473L490.748,573.885L490.575,572.3L490.402,570.716L490.227,569.133L490.051,567.552L489.875,565.973L489.697,564.397L489.518,562.822L489.338,561.25L489.157,559.68L488.975,558.112L488.791,556.548L488.607,554.986L488.421,553.427L488.235,551.871L488.047,550.319L487.858,548.77L487.668,547.224L487.476,545.682L487.284,544.144L487.09,542.61L486.895,541.079L486.699,539.553L486.502,538.031L486.304,536.514L486.104,535.001L485.903,533.493L485.701,531.989L485.498,530.491L485.294,528.998L485.088,527.51L484.881,526.027L484.673,524.55L484.463,523.078L484.252,521.612L484.04,520.153L483.827,518.699L483.613,517.251L483.397,515.81L483.18,514.375L482.961,512.947L482.741,511.525L482.52,510.111L482.298,508.703L482.074,507.303L481.849,505.909L481.623,504.523L481.395,503.145L481.166,501.775L480.936,500.412L480.704,499.057L480.471,497.71L480.237,496.372L480.001,495.042L479.764,493.72L479.525,492.407L479.285,491.101L479.165,490.455L479.044,489.808L478.923,489.164L478.802,488.522L478.68,487.883L478.558,487.245L478.435,486.61L478.313,485.978L478.189,485.348L478.066,484.72L477.942,484.095L477.818,483.472L477.693,482.851L477.568,482.233L477.443,481.618L477.318,481.005L477.192,480.394L477.065,479.786L476.939,479.181L476.812,478.578L476.685,477.978L476.557,477.381L476.429,476.786L476.301,476.193L476.172,475.604L476.043,475.017L475.913,474.433L475.784,473.851L475.654,473.273L475.523,472.696L475.393,472.123L475.261,471.553L475.13,470.985L474.998,470.421L474.866,469.859L474.734,469.3L474.601,468.744L474.468,468.191L474.334,467.641L474.201,467.093L474.066,466.549L473.932,466.008L473.797,465.47L473.662,464.934L473.527,464.402L473.391,463.873L473.255,463.347L473.118,462.824L472.982,462.305L472.845,461.788L472.707,461.275L472.57,460.765L472.432,460.258L472.293,459.754L472.154,459.253L472.016,458.756L471.876,458.262L471.737,457.772L471.597,457.285L471.457,456.801L471.316,456.32L471.175,455.843L471.034,455.37L470.893,454.9L470.751,454.433L470.61,453.97L470.467,453.511L470.325,453.054L470.182,452.602L470.039,452.153L469.896,451.708L469.752,451.266L469.609,450.828L469.465,450.394L469.321,449.963L469.176,449.536L469.031,449.113L468.886,448.694L468.741,448.278L468.596,447.867L468.45,447.459L468.305,447.055L468.159,446.655L468.013,446.259L467.867,445.867L467.72,445.479L467.573,445.094L467.427,444.714L467.28,444.338L467.133,443.967L466.986,443.598L466.839,443.235L466.692,442.876L466.544,442.52L466.397,442.169L466.25,441.823L466.102,441.48L465.955,441.142L465.807,440.808L465.66,440.479L465.513,440.154L465.365,439.833L465.218,439.517L465.071,439.205L464.924,438.899L464.777,438.596L464.63,438.298L464.484,438.005L464.338,437.716L464.192,437.432L464.046,437.153L463.9,436.879L463.755,436.61L463.611,436.345L463.466,436.085L463.322,435.83L463.179,435.58L463.036,435.335L462.894,435.095L462.752,434.859L462.611,434.629L462.47,434.404L462.331,434.185L462.192,433.97L462.054,433.761L461.917,433.556L461.781,433.357L461.646,433.164L461.512,432.975L461.379,432.792L461.247,432.614L461.111,432.433L461.052,432.357L460.988,432.274L460.924,432.193L460.861,432.113L460.797,432.034L460.735,431.957L460.681,431.891L460.609,431.871L460.525,431.85L460.434,431.828L460.338,431.805L460.236,431.782L460.129,431.76L460.016,431.737L459.898,431.714L459.774,431.692L459.645,431.669L459.512,431.647L459.374,431.625L459.23,431.604L459.083,431.583L458.931,431.563L458.774,431.543L458.613,431.523L458.447,431.505L458.278,431.487L458.105,431.469L457.927,431.452L457.746,431.436L457.561,431.421L457.373,431.407L457.18,431.393L456.985,431.38L456.786,431.368L456.583,431.357L456.377,431.346L456.168,431.336L455.956,431.327L455.74,431.319L455.522,431.312L455.3,431.306L455.076,431.3L454.849,431.296L454.619,431.292L454.386,431.289L454.151,431.287L453.912,431.285L453.672,431.285L453.429,431.285L453.183,431.286L452.934,431.288L452.684,431.291L452.431,431.295L452.176,431.3L451.919,431.305L451.659,431.311L451.398,431.318L451.133,431.326L450.868,431.334L450.6,431.344L450.33,431.354L450.058,431.365L449.789,431.376L449.232,431.402L448.672,431.431L448.106,431.463L447.533,431.498L446.954,431.535L446.369,431.575L445.78,431.618L445.185,431.664L444.585,431.712L443.98,431.763L443.372,431.816L442.759,431.872L442.143,431.93L441.523,431.99L440.9,432.052L440.275,432.117L439.647,432.183L439.016,432.252L438.384,432.322L437.75,432.394L437.114,432.468L436.477,432.544L435.839,432.621L435.201,432.7L434.562,432.781L433.923,432.862L433.284,432.946L432.645,433.03L432.007,433.115L431.37,433.202L430.734,433.29L430.099,433.378L429.466,433.468L428.835,433.558L428.206,433.65L427.579,433.741L426.955,433.834L426.334,433.927L425.716,434.02L425.102,434.114L424.491,434.208L423.884,434.302L423.281,434.397L422.683,434.492L422.091,434.586L420.916,434.775L419.765,434.964L418.637,435.151L417.535,435.336L416.46,435.518L415.414,435.697L414.4,435.873L413.418,436.045L412.472,436.211L411.562,436.373L410.692,436.528L409.071,436.819L407.626,437.079L406.371,437.305L405.813,437.405L405.305,437.494L404.844,437.574L404.445,437.641L403.988,437.717L403.548,437.791L403.109,437.866L402.67,437.942L402.233,438.018L401.796,438.094L401.36,438.172L400.926,438.25L400.492,438.329L400.059,438.408L399.626,438.488L399.195,438.569L398.765,438.651L398.335,438.733L397.906,438.816L397.479,438.899L397.052,438.983L396.626,439.068L396.201,439.154L395.776,439.24L395.353,439.327L394.93,439.414L394.509,439.502L394.088,439.591L393.668,439.68L393.249,439.77L392.831,439.861L392.413,439.953L391.997,440.045L391.581,440.137L391.166,440.231L390.752,440.325L390.339,440.419L389.927,440.515L389.516,440.611L389.105,440.707L388.696,440.804L388.287,440.902L387.879,441.001L387.472,441.1L387.066,441.2L386.661,441.3L386.256,441.401L385.852,441.503L385.45,441.606L385.048,441.709L384.647,441.812L384.246,441.917L383.847,442.022L383.448,442.127L383.051,442.233L382.654,442.34L382.258,442.448L381.863,442.556L381.468,442.665L381.075,442.774L380.682,442.884L380.29,442.995L379.899,443.106L379.509,443.218L379.12,443.33L378.731,443.443L378.343,443.557L377.957,443.671L377.571,443.786L377.185,443.902L376.801,444.018L376.417,444.135L376.035,444.252L375.653,444.37L375.272,444.489L374.892,444.608L374.512,444.728L374.134,444.849L373.756,444.97L373.379,445.092L373.003,445.214L372.627,445.337L372.253,445.461L371.879,445.585L371.506,445.71L371.134,445.835L370.763,445.961L370.392,446.088L370.023,446.215L369.654,446.343L369.286,446.471L368.919,446.6L368.552,446.73L368.186,446.86L367.822,446.991L367.457,447.122L367.094,447.254L366.732,447.386L366.37,447.52L366.009,447.654L365.649,447.788L365.29,447.923L364.932,448.058L364.574,448.195L364.217,448.331L363.861,448.469L363.506,448.606L363.151,448.745L362.797,448.884L362.444,449.024L362.092,449.164L361.741,449.305L361.39,449.446L361.04,449.588L360.692,449.731L360.343,449.874L359.996,450.018L359.649,450.162L359.303,450.307L358.958,450.452L358.614,450.598L358.27,450.745L357.927,450.892L357.585,451.04L357.244,451.188L356.904,451.337L356.564,451.486L356.225,451.637L355.886,451.787L355.549,451.938L355.212,452.09L354.876,452.242L354.541,452.395L354.207,452.549L353.873,452.703L353.54,452.857L353.208,453.012L352.877,453.168L352.546,453.324L352.216,453.481L351.887,453.638L351.559,453.796L351.231,453.955L350.904,454.114L350.578,454.273L350.252,454.434L349.928,454.594L349.604,454.756L349.281,454.917L348.958,455.08L348.637,455.243L348.315,455.406L347.995,455.57L347.676,455.735L347.357,455.9L347.039,456.065L346.722,456.232L346.406,456.398L346.09,456.566L345.774,456.734L345.46,456.902L345.147,457.071L344.834,457.24L344.521,457.41L344.21,457.581L343.899,457.752L343.589,457.924L343.28,458.096L342.971,458.268L342.664,458.442L342.356,458.616L342.05,458.79L341.744,458.965L341.439,459.14L341.135,459.316L340.831,459.493L340.529,459.669L340.227,459.847L339.925,460.025L339.624,460.204L339.324,460.383L339.025,460.562L338.727,460.743L338.428,460.923L338.131,461.104L337.835,461.286L337.539,461.469L337.244,461.651L336.95,461.835L336.656,462.019L336.363,462.203L336.07,462.388L335.779,462.573L335.488,462.759L335.198,462.946L334.908,463.133L334.619,463.32L334.331,463.508L334.044,463.697L333.757,463.886L333.47,464.075L333.185,464.265L332.9,464.456L332.616,464.647L332.333,464.839L332.05,465.031L331.768,465.224L331.487,465.417L331.206,465.61L330.926,465.805L330.646,465.999L330.368,466.195L330.09,466.39L329.812,466.587L329.536,466.783L329.26,466.98L328.984,467.178L328.71,467.377L328.436,467.575L328.162,467.775L327.89,467.974L327.618,468.175L327.346,468.375L327.075,468.577L326.805,468.778L326.536,468.981L326.267,469.184L325.999,469.387L325.732,469.591L325.465,469.795L325.199,470L324.933,470.205L324.668,470.411L324.404,470.617L324.141,470.824L323.878,471.031L323.616,471.239L323.354,471.447L323.092,471.656L322.833,471.865L322.573,472.075L322.314,472.285L322.055,472.496L321.798,472.707L321.54,472.919L321.284,473.131L321.028,473.344L320.773,473.557L320.518,473.771L320.264,473.985L320.011,474.199L319.758,474.414L319.506,474.63L319.254,474.846L319.004,475.063L318.753,475.28L318.504,475.497L318.255,475.716L318.006,475.934L317.758,476.153L317.511,476.373L317.265,476.593L317.019,476.813L316.774,477.034L316.529,477.255L316.285,477.477L316.041,477.7L315.799,477.922L315.556,478.146L315.315,478.369L315.074,478.594L314.833,478.819L314.593,479.044L314.354,479.27L314.116,479.496L313.878,479.722L313.641,479.95L313.404,480.177L313.167,480.405L312.932,480.634L312.697,480.863L312.463,481.092L312.229,481.322L311.995,481.553L311.763,481.784L311.531,482.015L311.3,482.247L311.069,482.479L310.839,482.712L310.609,482.945L310.38,483.179L310.152,483.413L309.924,483.648L309.696,483.883L309.47,484.118L309.244,484.355L309.018,484.591L308.793,484.828L308.569,485.065L308.345,485.304L308.122,485.542L307.899,485.78L307.677,486.02L307.456,486.26L307.235,486.5L307.014,486.741L306.795,486.982L306.576,487.223L306.357,487.465L306.139,487.708L305.921,487.951L305.705,488.194L305.488,488.438L305.273,488.682L305.057,488.927L304.843,489.172L304.629,489.418L304.415,489.664L304.202,489.911L303.99,490.158L303.778,490.405L303.567,490.653L303.356,490.901L303.146,491.15L302.937,491.4L302.728,491.65L302.519,491.9L302.312,492.15L302.104,492.402L301.9,492.65L301.485,493.157L301.076,493.664L300.668,494.172L300.263,494.682L299.86,495.193L299.459,495.706L299.06,496.221L298.663,496.738L298.269,497.257L297.877,497.777L297.486,498.299L297.099,498.823L296.713,499.348L296.329,499.876L295.947,500.405L295.568,500.936L295.19,501.468L294.815,502.002L294.442,502.538L294.071,503.076L293.702,503.615L293.335,504.156L292.97,504.699L292.607,505.243L292.246,505.789L291.888,506.337L291.531,506.886L291.176,507.437L290.824,507.99L290.473,508.545L290.125,509.101L289.778,509.658L289.434,510.218L289.091,510.779L288.751,511.342L288.412,511.906L288.076,512.472L287.741,513.039L287.408,513.608L287.078,514.179L286.749,514.752L286.422,515.326L286.098,515.901L285.775,516.478L285.454,517.057L285.135,517.637L284.818,518.219L284.503,518.803L284.19,519.388L283.879,519.975L283.57,520.563L283.262,521.153L282.957,521.744L282.653,522.337L282.351,522.931L282.052,523.527L281.753,524.125L281.457,524.724L281.163,525.324L280.871,525.926L280.58,526.53L280.292,527.135L280.005,527.742L279.72,528.35L279.437,528.959L279.155,529.57L278.876,530.183L278.598,530.796L278.322,531.412L278.048,532.029L277.776,532.647L277.505,533.267L277.236,533.888L276.97,534.511L276.704,535.135L276.441,535.76L276.179,536.387L275.919,537.015L275.661,537.645L275.405,538.277L275.15,538.909L274.897,539.543L274.646,540.178L274.397,540.815L274.149,541.453L273.903,542.092L273.659,542.733L273.416,543.375L273.175,544.019L272.936,544.663L272.699,545.31L272.463,545.957L272.229,546.606L271.996,547.256L271.766,547.908L271.536,548.56L271.309,549.214L271.083,549.87L270.859,550.526L270.636,551.184L270.416,551.843L270.196,552.504L269.979,553.165L269.763,553.829L269.548,554.493L269.335,555.158L269.124,555.825L268.914,556.493L268.706,557.162L268.5,557.833L268.295,558.504L268.092,559.177L267.89,559.851L267.69,560.526L267.491,561.202L267.294,561.88L267.099,562.559L266.905,563.239L266.712,563.92L266.522,564.602L266.332,565.286L266.144,565.97L265.958,566.656L265.773,567.343L265.59,568.031L265.408,568.72L265.228,569.41L265.049,570.101L264.871,570.793L264.695,571.487L264.521,572.182L264.348,572.877L264.176,573.574L264.006,574.272L263.838,574.97L263.671,575.67L263.505,576.371L263.34,577.073L263.177,577.776L263.016,578.48L262.856,579.185L262.697,579.891L262.54,580.599L262.384,581.307L262.229,582.016L262.076,582.726L261.925,583.437L261.774,584.149L261.625,584.862L261.478,585.576L261.331,586.291L261.186,587.007L261.043,587.723L260.9,588.441L260.759,589.16L260.62,589.88L260.481,590.6L260.344,591.321L260.209,592.044L260.074,592.767L259.941,593.491L259.809,594.216L259.679,594.942L259.549,595.669L259.421,596.396L259.295,597.125L259.169,597.854L259.045,598.584L258.922,599.315L258.8,600.047L258.68,600.78L258.56,601.513L258.442,602.248L258.326,602.983L258.21,603.718L258.095,604.455L257.982,605.193L257.87,605.931L257.759,606.67L257.65,607.41L257.541,608.15L257.434,608.891L257.328,609.634L257.223,610.376L257.119,611.12L257.016,611.864L256.914,612.609L256.814,613.355L256.715,614.101L256.616,614.848L256.519,615.596L256.423,616.344L256.329,617.093L256.235,617.843L256.142,618.593L256.05,619.345L255.96,620.096L255.87,620.849L255.782,621.602L255.695,622.355L255.608,623.11L255.523,623.865L255.439,624.62L255.356,625.376L255.274,626.133L255.192,626.89L255.112,627.648L255.033,628.407L254.955,629.166L254.878,629.926L254.802,630.686L254.727,631.446L254.653,632.208L254.58,632.969L254.507,633.732L254.436,634.495L254.366,635.258L254.296,636.022L254.228,636.786L254.161,637.551L254.094,638.317L254.028,639.083L253.964,639.849L253.9,640.616L253.837,641.383L253.775,642.151L253.714,642.919L253.654,643.688L253.594,644.457L253.536,645.226L253.478,645.996L253.422,646.767L253.366,647.538L253.311,648.309L253.257,649.081L253.203,649.853L253.151,650.625L253.099,651.398L253.048,652.171L252.998,652.944L252.949,653.718L252.9,654.492L252.853,655.267L252.806,656.042L252.76,656.817L252.714,657.593L252.67,658.369L252.626,659.145L252.583,659.922L252.541,660.698L252.499,661.475L252.458,662.253L252.418,663.029L252.34,664.587L252.265,666.144L252.192,667.702L252.123,669.262L252.056,670.822L251.991,672.383L251.929,673.944L251.87,675.507L251.813,677.07L251.759,678.634L251.707,680.198L251.657,681.763L251.61,683.328L251.565,684.894L251.522,686.46L251.481,688.027L251.442,689.594L251.405,691.161L251.37,692.728L251.338,694.295L251.307,695.862L251.277,697.43L251.25,698.997L251.224,700.564L251.2,702.131L251.178,703.698L251.157,705.265L251.137,706.831L251.119,708.397L251.103,709.963L251.087,711.528L251.074,713.093L251.061,714.657L251.049,716.22L251.039,717.783L251.03,719.345L251.022,720.906L251.014,722.467L251.008,724.027L251.003,725.585L250.998,727.143L250.994,728.699L250.989,731.811L250.986,734.916L250.985,738.019L250.502,740.755L249.112,743.161L246.983,744.946L244.372,745.896L241.594,745.895L238.983,744.944L236.855,743.158L235.467,740.751L234.985,738.015L234.986,734.906L234.989,731.789L234.994,728.666L234.998,727.1L235.003,725.534L235.008,723.967L235.015,722.398L235.022,720.827L235.03,719.256L235.039,717.683L235.05,716.108L235.061,714.533L235.074,712.957L235.088,711.379L235.103,709.8L235.12,708.221L235.138,706.64L235.158,705.059L235.179,703.477L235.202,701.894L235.226,700.31L235.252,698.726L235.28,697.141L235.309,695.555L235.341,693.969L235.374,692.382L235.409,690.795L235.447,689.208L235.486,687.62L235.527,686.032L235.571,684.444L235.617,682.856L235.665,681.267L235.715,679.679L235.768,678.09L235.823,676.501L235.881,674.913L235.941,673.325L236.004,671.736L236.07,670.149L236.138,668.561L236.209,666.974L236.283,665.387L236.359,663.8L236.439,662.216L236.48,661.421L236.521,660.628L236.564,659.836L236.607,659.043L236.651,658.251L236.696,657.459L236.741,656.667L236.787,655.875L236.835,655.084L236.882,654.292L236.931,653.501L236.981,652.71L237.031,651.919L237.082,651.129L237.134,650.338L237.187,649.548L237.241,648.758L237.295,647.969L237.351,647.179L237.407,646.39L237.464,645.601L237.522,644.812L237.581,644.024L237.641,643.236L237.702,642.448L237.764,641.66L237.826,640.873L237.89,640.086L237.954,639.299L238.02,638.513L238.086,637.727L238.153,636.941L238.222,636.156L238.291,635.371L238.361,634.586L238.432,633.801L238.504,633.017L238.578,632.234L238.652,631.45L238.727,630.667L238.803,629.885L238.88,629.103L238.959,628.321L239.038,627.539L239.118,626.758L239.2,625.978L239.282,625.198L239.366,624.418L239.45,623.638L239.536,622.859L239.623,622.081L239.711,621.303L239.8,620.525L239.89,619.748L239.981,618.971L240.073,618.195L240.167,617.419L240.261,616.644L240.357,615.869L240.454,615.095L240.552,614.321L240.651,613.548L240.751,612.775L240.853,612.003L240.956,611.231L241.059,610.46L241.165,609.689L241.271,608.919L241.378,608.149L241.487,607.38L241.597,606.612L241.708,605.844L241.821,605.077L241.934,604.31L242.049,603.544L242.165,602.778L242.283,602.013L242.402,601.249L242.522,600.485L242.643,599.722L242.766,598.959L242.89,598.197L243.015,597.436L243.141,596.675L243.269,595.915L243.398,595.156L243.529,594.397L243.661,593.639L243.794,592.881L243.929,592.125L244.065,591.369L244.202,590.613L244.341,589.859L244.481,589.105L244.622,588.352L244.765,587.599L244.91,586.847L245.055,586.096L245.203,585.346L245.351,584.596L245.501,583.847L245.653,583.099L245.806,582.351L245.96,581.605L246.116,580.859L246.273,580.114L246.432,579.369L246.593,578.626L246.755,577.883L246.918,577.141L247.083,576.4L247.249,575.66L247.417,574.92L247.587,574.181L247.758,573.444L247.93,572.706L248.104,571.97L248.28,571.235L248.457,570.5L248.636,569.767L248.816,569.034L248.998,568.302L249.182,567.571L249.367,566.841L249.554,566.112L249.743,565.383L249.933,564.656L250.124,563.929L250.318,563.203L250.513,562.479L250.71,561.755L250.908,561.032L251.108,560.31L251.31,559.589L251.513,558.869L251.718,558.15L251.925,557.432L252.134,556.715L252.344,555.999L252.556,555.283L252.77,554.569L252.985,553.856L253.202,553.144L253.421,552.433L253.642,551.723L253.865,551.014L254.089,550.306L254.315,549.598L254.543,548.893L254.773,548.188L255.004,547.484L255.238,546.781L255.473,546.079L255.71,545.378L255.949,544.679L256.189,543.98L256.432,543.283L256.676,542.586L256.923,541.891L257.171,541.197L257.421,540.504L257.673,539.812L257.927,539.122L258.182,538.432L258.44,537.743L258.7,537.056L258.961,536.37L259.225,535.685L259.49,535.001L259.758,534.319L260.027,533.637L260.298,532.957L260.572,532.278L260.847,531.6L261.124,530.924L261.404,530.248L261.685,529.574L261.968,528.901L262.254,528.23L262.541,527.559L262.831,526.89L263.122,526.222L263.416,525.556L263.711,524.89L264.009,524.227L264.309,523.564L264.611,522.902L264.915,522.242L265.221,521.583L265.529,520.926L265.839,520.27L266.152,519.615L266.466,518.962L266.783,518.31L267.102,517.659L267.423,517.009L267.746,516.361L268.071,515.715L268.399,515.07L268.729,514.426L269.061,513.783L269.395,513.142L269.731,512.503L270.069,511.864L270.41,511.228L270.753,510.593L271.098,509.959L271.446,509.326L271.796,508.695L272.148,508.066L272.502,507.438L272.858,506.811L273.217,506.186L273.578,505.563L273.942,504.941L274.308,504.32L274.676,503.701L275.046,503.084L275.419,502.468L275.794,501.854L276.171,501.241L276.551,500.63L276.933,500.021L277.317,499.412L277.704,498.806L278.093,498.201L278.485,497.598L278.879,496.996L279.275,496.396L279.674,495.798L280.075,495.201L280.479,494.606L280.885,494.013L281.293,493.421L281.704,492.831L282.118,492.243L282.533,491.656L282.952,491.071L283.373,490.488L283.796,489.906L284.221,489.327L284.65,488.748L285.08,488.172L285.513,487.598L285.949,487.025L286.388,486.453L286.828,485.884L287.272,485.317L287.717,484.751L288.166,484.187L288.617,483.625L289.07,483.065L289.524,482.509L289.755,482.228L289.985,481.95L290.215,481.672L290.446,481.395L290.678,481.118L290.91,480.842L291.142,480.566L291.376,480.291L291.61,480.016L291.845,479.741L292.081,479.467L292.317,479.194L292.553,478.921L292.791,478.649L293.029,478.377L293.267,478.105L293.507,477.834L293.747,477.563L293.988,477.293L294.229,477.024L294.471,476.755L294.713,476.486L294.957,476.218L295.201,475.95L295.445,475.683L295.691,475.416L295.936,475.15L296.183,474.884L296.43,474.619L296.678,474.354L296.927,474.09L297.176,473.826L297.426,473.563L297.677,473.3L297.928,473.038L298.18,472.776L298.432,472.514L298.686,472.254L298.94,471.993L299.194,471.733L299.449,471.474L299.705,471.216L299.962,470.957L300.219,470.699L300.477,470.442L300.736,470.185L300.995,469.929L301.255,469.673L301.516,469.418L301.777,469.163L302.039,468.909L302.302,468.655L302.565,468.402L302.829,468.15L303.094,467.897L303.36,467.645L303.626,467.394L303.893,467.144L304.16,466.894L304.428,466.644L304.697,466.395L304.966,466.147L305.237,465.899L305.508,465.651L305.779,465.404L306.052,465.158L306.324,464.912L306.598,464.667L306.873,464.422L307.148,464.178L307.423,463.934L307.7,463.691L307.977,463.448L308.254,463.206L308.533,462.964L308.812,462.723L309.092,462.483L309.373,462.243L309.654,462.003L309.936,461.764L310.219,461.526L310.502,461.288L310.786,461.051L311.071,460.814L311.356,460.578L311.642,460.343L311.929,460.108L312.217,459.873L312.505,459.639L312.794,459.406L313.084,459.173L313.374,458.941L313.665,458.709L313.957,458.478L314.249,458.247L314.543,458.017L314.837,457.788L315.131,457.559L315.427,457.331L315.723,457.103L316.019,456.876L316.317,456.649L316.615,456.423L316.914,456.197L317.213,455.972L317.514,455.748L317.815,455.524L318.116,455.301L318.419,455.078L318.722,454.856L319.026,454.635L319.331,454.414L319.636,454.194L319.942,453.974L320.248,453.755L320.556,453.536L320.864,453.318L321.173,453.101L321.482,452.884L321.793,452.667L322.104,452.452L322.415,452.237L322.728,452.022L323.041,451.808L323.355,451.595L323.67,451.382L323.985,451.17L324.301,450.958L324.618,450.747L324.935,450.537L325.254,450.327L325.573,450.118L325.892,449.91L326.213,449.702L326.534,449.494L326.856,449.287L327.178,449.081L327.502,448.876L327.826,448.671L328.151,448.466L328.476,448.263L328.802,448.06L329.129,447.857L329.457,447.655L329.785,447.454L330.115,447.253L330.444,447.053L330.775,446.853L331.107,446.654L331.439,446.456L331.772,446.258L332.105,446.062L332.439,445.865L332.775,445.669L333.11,445.474L333.447,445.28L333.784,445.085L334.122,444.892L334.461,444.699L334.8,444.507L335.14,444.316L335.481,444.125L335.823,443.935L336.166,443.745L336.509,443.556L336.853,443.368L337.197,443.18L337.542,442.993L337.889,442.807L338.236,442.621L338.583,442.436L338.932,442.251L339.281,442.067L339.631,441.884L339.981,441.701L340.333,441.519L340.685,441.338L341.038,441.157L341.391,440.977L341.746,440.798L342.101,440.619L342.457,440.44L342.813,440.263L343.171,440.086L343.529,439.91L343.888,439.734L344.247,439.559L344.608,439.385L344.969,439.211L345.331,439.038L345.693,438.866L346.057,438.694L346.421,438.523L346.786,438.353L347.152,438.183L347.518,438.014L347.885,437.845L348.253,437.677L348.622,437.51L348.992,437.344L349.362,437.178L349.733,437.013L350.104,436.848L350.477,436.684L350.85,436.521L351.224,436.358L351.599,436.197L351.975,436.035L352.351,435.875L352.728,435.715L353.106,435.556L353.485,435.397L353.864,435.239L354.244,435.082L354.625,434.925L355.007,434.769L355.389,434.614L355.772,434.46L356.156,434.306L356.541,434.152L356.927,434L357.313,433.848L357.7,433.697L358.088,433.546L358.477,433.396L358.866,433.247L359.256,433.099L359.647,432.951L360.039,432.804L360.431,432.657L360.825,432.512L361.219,432.366L361.614,432.222L362.009,432.078L362.406,431.935L362.803,431.793L363.201,431.651L363.599,431.51L363.999,431.37L364.4,431.23L364.8,431.091L365.202,430.953L365.605,430.815L366.009,430.678L366.413,430.542L366.818,430.406L367.223,430.272L367.63,430.137L368.037,430.004L368.446,429.871L368.855,429.739L369.264,429.608L369.675,429.477L370.086,429.347L370.498,429.218L370.911,429.089L371.325,428.961L371.739,428.834L372.154,428.708L372.57,428.582L372.987,428.457L373.405,428.332L373.823,428.209L374.243,428.086L374.663,427.963L375.084,427.842L375.505,427.721L375.928,427.601L376.351,427.481L376.775,427.362L377.2,427.244L377.625,427.127L378.052,427.01L378.479,426.894L378.907,426.779L379.336,426.665L379.766,426.551L380.196,426.438L380.627,426.325L381.059,426.214L381.492,426.103L381.926,425.992L382.36,425.883L382.796,425.774L383.232,425.666L383.669,425.559L384.106,425.452L384.545,425.346L384.984,425.241L385.424,425.136L385.866,425.033L386.307,424.93L386.75,424.827L387.193,424.726L387.637,424.625L388.083,424.524L388.528,424.425L388.975,424.326L389.423,424.228L389.871,424.131L390.32,424.034L390.77,423.939L391.221,423.844L391.672,423.749L392.125,423.655L392.578,423.563L393.032,423.47L393.487,423.379L393.943,423.288L394.399,423.198L394.857,423.109L395.315,423.02L395.774,422.933L396.234,422.846L396.695,422.759L397.156,422.674L397.619,422.589L398.082,422.505L398.546,422.421L399.011,422.339L399.476,422.257L399.943,422.176L400.41,422.095L400.878,422.016L401.347,421.937L401.802,421.861L402.147,421.803L402.55,421.733L403.02,421.65L403.551,421.556L404.791,421.333L406.238,421.072L407.874,420.778L408.761,420.62L409.688,420.455L410.654,420.285L411.658,420.11L412.697,419.93L413.769,419.746L414.872,419.559L416.005,419.369L417.165,419.176L418.351,418.982L419.559,418.788L420.174,418.689L420.793,418.592L421.416,418.494L422.044,418.396L422.676,418.299L423.313,418.202L423.954,418.105L424.599,418.008L425.247,417.912L425.899,417.817L426.554,417.722L427.211,417.628L427.871,417.534L428.534,417.442L429.199,417.35L429.866,417.259L430.534,417.17L431.204,417.081L431.876,416.994L432.548,416.908L433.221,416.823L433.895,416.74L434.57,416.658L435.244,416.578L435.919,416.5L436.593,416.423L437.267,416.348L437.939,416.275L438.612,416.203L439.283,416.134L439.952,416.067L440.621,416.002L441.287,415.94L441.951,415.879L442.614,415.821L443.274,415.766L443.931,415.713L444.587,415.663L445.239,415.615L445.887,415.571L446.533,415.529L447.175,415.49L447.814,415.454L448.449,415.422L449.075,415.392L449.394,415.379L449.707,415.366L450.019,415.354L450.33,415.343L450.64,415.333L450.948,415.324L451.256,415.316L451.562,415.309L451.868,415.303L452.172,415.297L452.475,415.293L452.777,415.289L453.077,415.287L453.376,415.285L453.675,415.285L453.972,415.285Z"/>
    <path d="M206.536,493.062L209.132,494.054L211.048,495.202L212.963,496.351L216.783,498.643L220.592,500.932L224.389,503.216L231.955,507.767L235.723,510.032L239.484,512.29L241.361,513.416L243.236,514.54L245.11,515.661L246.982,516.781L248.852,517.898L250.721,519.013L252.589,520.125L254.455,521.235L256.32,522.341L258.184,523.446L260.047,524.547L261.908,525.646L263.769,526.742L265.629,527.834L267.489,528.924L269.347,530.01L271.206,531.093L273.063,532.173L274.921,533.249L276.779,534.323L277.706,534.857L278.635,535.392L279.563,535.925L280.492,536.457L281.42,536.989L282.348,537.519L283.277,538.049L284.205,538.578L285.133,539.105L286.062,539.632L286.99,540.158L287.919,540.682L288.848,541.206L289.776,541.729L290.705,542.25L291.634,542.771L292.563,543.291L293.492,543.809L294.421,544.327L295.351,544.843L296.281,545.358L297.21,545.873L298.14,546.386L299.071,546.898L300.001,547.409L300.931,547.919L301.862,548.427L302.794,548.935L303.725,549.441L304.656,549.946L305.588,550.45L306.52,550.953L307.453,551.455L308.385,551.955L309.318,552.455L310.252,552.953L311.185,553.45L312.119,553.945L313.054,554.439L313.988,554.933L314.923,555.424L315.859,555.915L316.795,556.404L317.731,556.892L318.668,557.379L319.605,557.864L320.542,558.348L321.48,558.831L322.419,559.312L323.358,559.792L324.297,560.271L325.237,560.748L326.178,561.224L327.119,561.698L328.06,562.171L329.002,562.643L329.945,563.114L330.888,563.582L331.831,564.05L332.776,564.516L333.72,564.98L334.666,565.444L335.612,565.905L336.559,566.365L337.506,566.824L338.454,567.281L339.403,567.737L340.352,568.191L341.302,568.643L342.253,569.095L343.204,569.544L344.156,569.992L345.109,570.439L346.062,570.883L347.016,571.327L347.971,571.768L348.927,572.209L349.884,572.647L350.841,573.084L351.799,573.519L352.758,573.953L353.718,574.385L354.678,574.815L355.64,575.244L356.602,575.671L357.565,576.096L358.529,576.52L359.494,576.942L360.46,577.362L361.426,577.781L362.394,578.197L363.363,578.612L364.332,579.026L365.303,579.437L366.274,579.847L367.246,580.255L368.22,580.662L369.194,581.066L370.169,581.469L371.146,581.87L372.123,582.269L373.101,582.666L374.081,583.061L375.061,583.455L376.043,583.847L377.026,584.237L378.009,584.625L378.995,585.011L379.98,585.395L380.967,585.778L381.956,586.158L382.945,586.536L383.936,586.913L384.928,587.288L385.921,587.661L386.915,588.031L387.91,588.4L388.907,588.767L389.904,589.132L390.903,589.495L391.904,589.856L392.905,590.215L393.908,590.572L394.912,590.927L395.918,591.28L396.924,591.63L397.932,591.979L398.942,592.326L399.952,592.671L400.964,593.013L401.978,593.354L402.993,593.692L404.009,594.028L405.026,594.363L406.045,594.695L407.066,595.025L408.088,595.353L409.111,595.678L410.136,596.002L411.162,596.323L412.19,596.642L413.219,596.959L414.249,597.274L415.282,597.587L416.316,597.897L417.351,598.205L418.388,598.511L419.426,598.815L420.466,599.116L421.507,599.416L422.551,599.713L423.595,600.007L424.642,600.3L425.69,600.59L426.739,600.878L427.79,601.163L428.843,601.446L429.898,601.727L430.954,602.006L432.012,602.282L433.072,602.556L434.133,602.827L435.196,603.096L436.261,603.363L437.328,603.627L438.396,603.889L439.466,604.149L440.539,604.406L441.612,604.661L442.688,604.913L443.765,605.163L444.845,605.41L445.926,605.655L447.009,605.897L448.093,606.137L449.18,606.374L450.269,606.609L451.359,606.842L452.452,607.072L453.546,607.299L454.643,607.524L455.741,607.746L456.841,607.966L457.953,608.185L459.289,608.448L460.733,608.735L462.271,609.044L463.901,609.373L465.618,609.723L467.418,610.092L469.299,610.479L471.255,610.883L473.283,611.304L475.379,611.741L477.54,612.193L479.76,612.659L482.037,613.138L484.365,613.63L486.743,614.133L489.164,614.647L491.625,615.171L494.123,615.704L496.653,616.245L499.211,616.793L501.793,617.348L504.395,617.908L507.014,618.473L509.645,619.042L512.284,619.613L514.927,620.187L517.57,620.762L520.209,621.338L522.841,621.913L525.46,622.487L528.064,623.059L530.647,623.627L533.207,624.192L535.739,624.752L538.239,625.307L540.703,625.855L543.127,626.396L545.508,626.928L547.84,627.452L550.121,627.966L552.345,628.469L554.51,628.961L556.612,629.44L558.645,629.906L560.607,630.358L562.494,630.795L564.302,631.217L566.025,631.621L566.857,631.818L567.665,632.009L568.45,632.197L569.212,632.379L569.952,632.557L570.667,632.731L571.358,632.899L572.025,633.063L572.666,633.221L573.282,633.375L573.874,633.523L574.439,633.667L574.978,633.805L575.492,633.938L575.981,634.067L576.443,634.191L576.881,634.31L577.296,634.425L577.688,634.537L578.05,634.643L578.24,634.7L578.418,634.755L578.591,634.809L578.763,634.864L578.94,634.923L579.119,634.983L579.302,635.048L579.498,635.12L579.708,635.201L579.945,635.298L580.225,635.422L580.575,635.59L580.964,635.802L581.303,636.01L581.652,636.245L582.092,636.579L582.333,636.793L582.884,637.333L582.892,637.342L583.601,638.225L583.606,638.233L584.379,639.628L584.382,639.635L584.963,641.75L584.964,641.757L584.851,644.497L584.849,644.504L583.873,646.954L583.869,646.96L582.501,648.648L582.495,648.653L581.212,649.634L581.203,649.639L580.195,650.164L580.185,650.168L579.424,650.453L579.137,650.545L578.623,650.668L578.206,650.743L577.866,650.789L577.536,650.822L577.154,650.844L576.93,650.847L574.187,650.409L573.333,649.934L573.247,649.909L572.963,649.828L572.638,649.737L572.275,649.638L571.876,649.532L571.444,649.418L570.979,649.297L570.482,649.17L569.955,649.036L569.398,648.896L568.813,648.75L568.198,648.598L567.557,648.441L566.889,648.278L566.195,648.11L565.476,647.937L564.731,647.759L563.962,647.575L563.17,647.387L562.356,647.195L560.656,646.796L558.872,646.38L557.006,645.947L555.062,645.5L553.046,645.037L550.96,644.562L548.809,644.073L546.597,643.573L544.329,643.062L542.008,642.541L539.638,642.011L537.224,641.472L534.77,640.926L532.279,640.374L529.756,639.816L527.204,639.253L524.628,638.686L522.033,638.116L519.421,637.543L516.796,636.97L514.164,636.396L511.528,635.822L508.892,635.25L506.26,634.68L503.636,634.112L501.025,633.549L498.429,632.99L495.854,632.437L493.303,631.89L490.781,631.351L488.291,630.82L485.837,630.298L483.424,629.785L481.056,629.284L478.736,628.794L476.469,628.317L474.258,627.853L472.109,627.403L470.024,626.969L468.008,626.55L466.066,626.149L464.201,625.765L462.417,625.4L460.719,625.054L459.111,624.729L457.597,624.425L456.183,624.144L454.861,623.883L453.728,623.66L452.587,623.432L451.449,623.202L450.312,622.969L449.177,622.733L448.044,622.495L446.914,622.254L445.785,622.01L444.659,621.764L443.534,621.515L442.411,621.264L441.29,621.01L440.172,620.754L439.055,620.495L437.94,620.233L436.827,619.969L435.716,619.703L434.606,619.434L433.499,619.162L432.394,618.889L431.29,618.612L430.188,618.333L429.088,618.052L427.99,617.768L426.894,617.482L425.799,617.193L424.707,616.902L423.616,616.609L422.527,616.313L421.439,616.015L420.354,615.715L419.27,615.412L418.188,615.106L417.108,614.799L416.03,614.489L414.952,614.177L413.877,613.862L412.804,613.546L411.732,613.227L410.662,612.905L409.594,612.582L408.527,612.256L407.462,611.928L406.398,611.598L405.337,611.265L404.276,610.93L403.218,610.593L402.161,610.254L401.105,609.913L400.051,609.569L398.999,609.224L397.948,608.876L396.899,608.526L395.851,608.174L394.805,607.82L393.76,607.464L392.717,607.105L391.676,606.745L390.635,606.383L389.597,606.018L388.559,605.651L387.524,605.283L386.489,604.912L385.457,604.539L384.425,604.165L383.395,603.788L382.366,603.409L381.339,603.028L380.313,602.646L379.288,602.261L378.265,601.875L377.244,601.486L376.223,601.096L375.204,600.703L374.186,600.309L373.169,599.913L372.154,599.515L371.14,599.115L370.127,598.713L369.116,598.309L368.106,597.904L367.097,597.497L366.089,597.088L365.083,596.677L364.077,596.264L363.073,595.849L362.07,595.433L361.069,595.015L360.068,594.595L359.069,594.173L358.071,593.75L357.074,593.325L356.078,592.898L355.083,592.469L354.089,592.039L353.097,591.607L352.105,591.174L351.115,590.738L350.125,590.301L349.137,589.863L348.15,589.423L347.163,588.981L346.178,588.537L345.194,588.092L344.211,587.646L343.228,587.197L342.247,586.747L341.267,586.296L340.287,585.843L339.309,585.389L338.332,584.933L337.355,584.475L336.38,584.016L335.405,583.555L334.431,583.093L333.458,582.63L332.486,582.165L331.515,581.698L330.545,581.23L329.575,580.761L328.606,580.29L327.639,579.818L326.672,579.344L325.705,578.869L324.74,578.392L323.775,577.915L322.811,577.435L321.848,576.955L320.886,576.473L319.924,575.99L318.963,575.505L318.003,575.019L317.044,574.532L316.085,574.043L315.127,573.554L314.169,573.063L313.212,572.57L312.256,572.076L311.3,571.582L310.345,571.085L309.391,570.588L308.438,570.09L307.484,569.59L306.532,569.089L305.58,568.587L304.628,568.083L303.678,567.579L302.727,567.073L301.778,566.566L300.828,566.058L299.88,565.549L298.931,565.039L297.984,564.528L297.036,564.015L296.089,563.502L295.143,562.987L294.197,562.472L293.252,561.955L292.307,561.437L291.362,560.918L290.418,560.399L289.474,559.878L288.53,559.356L287.587,558.833L286.644,558.309L285.702,557.784L284.759,557.259L283.818,556.732L282.876,556.204L281.935,555.676L280.994,555.146L280.053,554.616L279.113,554.084L278.173,553.552L277.233,553.019L276.293,552.485L275.354,551.95L274.415,551.414L273.476,550.877L272.537,550.34L271.598,549.802L270.66,549.263L269.721,548.723L268.782,548.181L266.907,547.098L265.032,546.011L263.157,544.921L261.282,543.829L259.407,542.733L257.533,541.634L255.658,540.533L253.784,539.43L251.909,538.323L250.034,537.215L248.159,536.104L246.283,534.99L244.407,533.875L242.53,532.757L240.652,531.637L238.774,530.515L236.895,529.392L235.015,528.266L233.134,527.139L231.251,526.009L227.483,523.747L223.709,521.479L216.143,516.927L212.348,514.645L208.545,512.36L204.733,510.071L202.824,508.927L200.91,507.78L198.811,505.961L197.46,503.532L197.022,500.789L197.548,498.061L198.976,495.677L201.133,493.926L203.758,493.018L206.536,493.062ZM570.754,637.729L570.589,638.002L570.99,637.508L570.754,637.729ZM573.309,635.711L572.14,636.429L572.057,636.507L573.591,635.588L573.309,635.711ZM576.572,634.851L576.294,634.867L576.008,634.895L575.708,634.935L575.327,635.005L574.843,635.121L574.194,635.327L574.19,635.328L576.674,634.849L576.572,634.851Z"/>
</svg>
