<svg xmlns="http://www.w3.org/2000/svg" width="2550" height="3300" viewBox="0 0 2550 3300" version="1.1">
	<path d="M 1156.235 306.015 C 1154.990 306.527, 1153.590 307.971, 1153.124 309.223 C 1151.826 312.713, 1150.972 470.845, 1152.236 473.619 C 1153.571 476.549, 1157.664 477.977, 1161.250 476.764 C 1162.763 476.252, 1164 475.449, 1164 474.980 C 1164 474.510, 1165.555 474.378, 1167.456 474.687 C 1169.844 475.074, 1172.098 474.630, 1174.746 473.249 C 1179.760 470.636, 1181.949 470.233, 1198 468.965 C 1228.329 466.569, 1240.372 462.896, 1259.750 450.130 C 1280.251 436.625, 1293.675 418.015, 1297.099 398.350 C 1297.778 394.454, 1298.054 385.686, 1297.784 376.656 C 1297.382 363.264, 1297.030 360.780, 1294.761 355.314 C 1287.945 338.900, 1272.900 323.064, 1255.971 314.485 C 1253.300 313.132, 1247.152 310.802, 1242.307 309.308 C 1233.536 306.603, 1233.355 306.591, 1198.076 306.272 C 1178.593 306.095, 1161.718 305.756, 1160.576 305.517 C 1159.434 305.279, 1157.481 305.503, 1156.235 306.015 M 2065.244 308.159 C 2056.369 309.123, 2044.685 313.810, 2038.018 319.080 C 2035.344 321.194, 2031.148 325.753, 2028.694 329.212 C 2021.046 339.989, 2011.128 358.231, 2009.530 364.460 C 2007.467 372.498, 2007.418 404.908, 2009.456 413.549 C 2011.367 421.652, 2017.480 436.645, 2026.764 456 C 2032.699 468.372, 2040.974 476.930, 2052.171 482.274 C 2074.188 492.783, 2108.794 500.287, 2120.593 497.110 C 2127.237 495.320, 2140.063 484.625, 2145.640 476.224 C 2151.416 467.522, 2153.091 461.398, 2153.080 449.029 C 2153.070 437.857, 2152.182 434.147, 2146.486 421.466 C 2143.564 414.960, 2142.440 414.121, 2135.064 412.933 C 2126.980 411.631, 2115.797 408.048, 2102.728 402.573 C 2091.759 397.977, 2082.295 395.604, 2079.245 396.685 C 2075.893 397.874, 2074 400.320, 2074 403.464 C 2074 408.321, 2075.852 409.876, 2084 411.857 C 2088.125 412.860, 2094.353 414.900, 2097.840 416.391 C 2109.352 421.312, 2123 425.931, 2127.982 426.592 C 2133.512 427.326, 2134.383 428.496, 2137.539 439.439 C 2139.595 446.567, 2138.966 457.028, 2136.091 463.526 C 2133.802 468.703, 2128.386 474.812, 2121.806 479.642 L 2116.846 483.283 2108.673 482.648 C 2097.189 481.756, 2087.114 479.636, 2075.500 475.667 C 2052.292 467.737, 2046.799 463.500, 2039.158 447.630 C 2033.318 435.503, 2031.970 432.529, 2027.178 421.197 L 2023.500 412.500 2023.500 389.500 L 2023.500 366.500 2027.644 358.950 C 2034.343 346.743, 2042.532 334.572, 2046.021 331.636 C 2053.902 325.005, 2065.848 321.551, 2078.500 322.247 C 2085.083 322.609, 2087.917 323.348, 2094.500 326.420 C 2098.900 328.473, 2104.075 330.876, 2106 331.760 C 2114.766 335.784, 2129.388 348.159, 2132.623 354.293 C 2135.628 359.991, 2143.573 359.860, 2145.970 354.073 C 2147.917 349.372, 2144.957 344.132, 2135.063 334.767 C 2125.264 325.490, 2117.877 320.838, 2100.723 313.138 C 2089.952 308.304, 2088.244 307.831, 2080.723 307.612 C 2076.200 307.479, 2069.235 307.726, 2065.244 308.159 M 1740.329 310.416 C 1739.135 311.288, 1737.884 313.251, 1737.549 314.777 C 1737.214 316.303, 1735.949 317.990, 1734.738 318.526 C 1730.002 320.621, 1730.030 320.159, 1730.016 395.500 C 1730.003 457.326, 1729.789 467.571, 1728.357 474.786 C 1727.098 481.125, 1726.973 483.645, 1727.822 485.509 C 1730.012 490.314, 1738.340 489.865, 1740.762 484.810 C 1743.642 478.802, 1744.310 471.229, 1744.894 438 L 1745.500 403.500 1785.839 403 L 1826.178 402.500 1828.089 400.139 C 1830.520 397.135, 1830.520 393.864, 1828.088 390.861 L 1826.176 388.500 1787.838 388.342 C 1766.752 388.255, 1748.487 388.142, 1747.250 388.092 L 1745 388 1745 356 L 1745 324 1748.750 324.031 C 1754.373 324.078, 1773.233 326.569, 1794 330.009 C 1804.175 331.694, 1820.149 334.186, 1829.498 335.546 C 1846.131 337.968, 1846.549 337.981, 1848.998 336.161 C 1850.682 334.909, 1851.599 333.146, 1851.804 330.765 C 1852.191 326.256, 1848.840 323.368, 1842.180 322.471 C 1837.928 321.898, 1831.250 320.858, 1793.500 314.890 C 1756.601 309.056, 1743.677 307.969, 1740.329 310.416 M 923.300 315.646 C 911.919 319.677, 883.090 354.907, 878.468 370.432 C 876.404 377.366, 876.625 383.498, 879.557 400.592 C 882.700 418.920, 883.655 420.720, 898.967 437.176 C 916.421 455.933, 923.099 462.236, 928.764 465.296 C 939.310 470.993, 955.427 472.160, 964.523 467.884 C 969.890 465.362, 984.157 452.753, 985.283 449.539 C 987.096 444.361, 981.979 439.214, 976.408 440.612 C 975.059 440.951, 970.560 444.312, 966.411 448.081 C 958.072 455.656, 955.363 456.671, 946.327 455.609 C 940.558 454.931, 936.530 453.246, 931.458 449.392 C 927.603 446.462, 898.888 415.531, 897.351 412.652 C 895.769 409.690, 892 386.953, 892 380.370 C 892 376.756, 892.779 373.375, 894.374 370.070 C 897.840 362.885, 910.243 346.747, 919.668 337.158 L 927.868 328.817 952.184 329.166 C 978.512 329.545, 979.940 329.823, 981.863 334.962 C 982.488 336.633, 983.489 339.311, 984.086 340.914 C 985.593 344.958, 990.330 346.886, 993.874 344.897 C 999.362 341.817, 999.193 334.943, 993.399 325.681 C 987.107 315.622, 980.767 314.004, 948 314.099 C 932.524 314.143, 926.471 314.523, 923.300 315.646 M 1447.854 316.845 C 1445.141 318.135, 1442.291 320.160, 1441.520 321.345 C 1440.363 323.125, 1440.039 335.872, 1439.664 394.500 C 1439.414 433.550, 1439.027 468.425, 1438.803 472 C 1438.259 480.703, 1439.358 483.632, 1444.071 486.036 C 1447.719 487.897, 1450.155 488, 1490.642 488 C 1516.762 488, 1536.820 488.443, 1542.256 489.140 C 1550.563 490.206, 1551.323 490.150, 1553.824 488.291 C 1557.374 485.651, 1557.979 480.196, 1555.017 477.516 C 1551.545 474.373, 1544.289 473.817, 1498 473.145 L 1453.500 472.500 1453.743 468 C 1453.877 465.525, 1454.262 448.087, 1454.600 429.250 L 1455.213 395 1462.856 395.053 C 1467.060 395.082, 1473.875 395.708, 1478 396.446 C 1492.682 399.070, 1499.333 397.029, 1499.333 389.900 C 1499.333 385.455, 1496.078 383.006, 1490.139 382.980 C 1487.588 382.970, 1481.900 382.310, 1477.500 381.515 C 1473.100 380.720, 1466.237 380.054, 1462.250 380.035 L 1455 380 1455 354.338 L 1455 328.677 1494.532 329.356 C 1522.123 329.830, 1534.674 329.710, 1536.080 328.957 C 1541.308 326.159, 1540.386 317.942, 1534.632 316.043 C 1532.709 315.409, 1516.053 314.902, 1492.128 314.750 L 1452.786 314.500 1447.854 316.845 M 600.783 319.750 C 597.542 323.466, 596.962 326.396, 596.437 341.704 C 596.138 350.392, 595.443 362.450, 594.892 368.500 C 592.641 393.198, 592.085 407.102, 592.043 439.716 C 592.009 466.695, 592.293 474.627, 593.385 477.216 C 594.147 479.022, 595.170 481.849, 595.658 483.498 C 597.223 488.777, 599.424 489.145, 622.666 488.018 C 664.523 485.987, 686.048 483.129, 695.225 478.384 C 699.752 476.043, 705.359 469.896, 707.901 464.486 C 709.846 460.350, 710.151 458.074, 710.138 447.814 C 710.117 431.767, 707.930 424.254, 701.068 416.657 C 696.676 411.794, 683.057 405.881, 655.500 396.870 C 647.250 394.172, 639.836 391.723, 639.025 391.427 C 638.051 391.073, 639.240 389.963, 642.525 388.162 C 657.897 379.735, 667.290 372.075, 670.497 365.349 C 672.223 361.730, 672.476 352.118, 670.980 346.993 C 670.419 345.072, 669.335 339.383, 668.569 334.351 C 667.174 325.171, 665.263 320.746, 661.924 318.959 C 660.898 318.410, 647.766 318, 631.221 318 C 604.935 318, 602.171 318.159, 600.783 319.750 M 1166.998 367.750 C 1166.996 393.462, 1166.698 425.012, 1166.335 437.860 L 1165.674 461.220 1168.632 459.691 C 1173.823 457.006, 1183.104 455.225, 1198 454.055 C 1223.988 452.013, 1234.819 448.807, 1250.703 438.453 C 1266.123 428.402, 1277.044 415.251, 1281.123 401.821 C 1282.904 395.957, 1283.132 392.965, 1282.838 379.280 C 1282.513 364.093, 1282.389 363.280, 1279.534 357.646 C 1275.836 350.348, 1267.004 339.735, 1260.465 334.733 C 1257.734 332.644, 1252.350 329.368, 1248.500 327.454 C 1237.017 321.745, 1231.378 321.037, 1197.250 321.017 L 1167 321 1166.998 367.750 M 369.589 328.058 C 364.254 329.391, 359.229 332.653, 357.589 335.847 C 356.087 338.771, 349.598 360.057, 347.330 369.500 C 344.449 381.492, 342.908 390.955, 340 414.500 C 338.370 427.700, 336.578 441.512, 336.018 445.193 C 335.458 448.874, 335 459.357, 335 468.488 C 335 484.979, 335.017 485.108, 337.566 487.657 C 339.644 489.735, 340.736 490.103, 343.303 489.589 C 349.280 488.394, 349.440 487.834, 350.134 465.716 C 350.702 447.587, 351.461 438.630, 353.799 422.500 L 354.524 417.500 381.012 417.219 C 395.580 417.065, 408.512 417.186, 409.750 417.488 C 412.498 418.160, 412.598 420.297, 410.570 435.076 C 408.999 446.520, 408.202 474.244, 409.345 477.642 C 411.119 482.913, 419.969 482.655, 422.163 477.268 C 422.783 475.746, 423.615 466.625, 424.011 457 C 424.789 438.108, 426.647 420.408, 428.106 418 C 431.395 412.569, 431.462 411.935, 429.198 407.661 C 427.538 404.527, 426.991 401.772, 426.982 396.500 C 426.964 387.005, 423.597 364.078, 420.960 355.500 C 414.781 335.398, 405.122 328.056, 384 327.404 C 378.225 327.226, 371.740 327.520, 369.589 328.058 M 611.609 332.823 C 611.329 333.276, 611.012 339.689, 610.903 347.073 C 610.711 360.192, 609.926 371.632, 608.514 381.898 L 607.812 387 610.963 387 C 613.034 387, 619.113 384.232, 628.692 378.928 C 646.965 368.809, 649.887 366.959, 653.825 363.021 C 657.599 359.247, 657.904 355.589, 655.414 344 C 654.528 339.875, 653.614 335.488, 653.382 334.250 C 652.963 332.004, 652.927 332, 632.540 332 C 621.308 332, 611.889 332.371, 611.609 332.823 M 372.229 342.615 C 370.239 343.501, 368.517 347.618, 365.151 359.534 C 361.669 371.862, 355.705 401.038, 356.504 401.837 C 356.788 402.121, 369.390 402.386, 384.510 402.427 L 412 402.500 411.982 395.500 C 411.962 388.139, 409.827 370.968, 407.877 362.500 C 406.035 354.499, 402.430 348.313, 397.838 345.274 C 394.111 342.807, 392.717 342.516, 383.603 342.294 C 378.046 342.159, 372.928 342.303, 372.229 342.615 M 615.500 402.998 C 614.400 403.469, 612.032 403.612, 610.237 403.314 L 606.974 402.773 607.237 438.136 L 607.500 473.500 618.500 473.190 C 632.497 472.796, 666.355 470.286, 675.500 468.964 C 683.680 467.782, 690.434 464.645, 693.397 460.653 C 695.273 458.124, 695.479 456.612, 695.306 446.659 C 695.098 434.661, 693.849 430.027, 689.837 426.369 C 687.238 424, 669.840 416.940, 654.500 412.030 C 649 410.270, 642.854 408.213, 640.841 407.459 C 635.709 405.537, 621.534 401.986, 619.333 402.070 C 618.325 402.109, 616.600 402.526, 615.500 402.998 M 937.315 593.007 C 936.114 593.491, 934.712 594.700, 934.201 595.694 C 931.849 600.264, 931.352 621.438, 932.165 682.500 C 932.478 706.035, 932.368 707.913, 930.284 714.542 C 927.971 721.895, 921.781 732.445, 917.392 736.513 C 915.093 738.643, 914.143 738.840, 908.165 738.423 C 900.927 737.919, 893.209 735.978, 885.750 732.786 C 881.264 730.867, 881 730.541, 881 726.924 C 881 719.201, 876.401 714.756, 870.666 716.937 C 863.661 719.600, 864.541 735.340, 872.071 742.063 C 875.366 745.005, 889.337 750.375, 897.886 751.985 C 906.924 753.688, 919.035 753.278, 922.500 751.152 C 930.664 746.145, 939.561 733.201, 943.615 720.433 C 947.765 707.367, 949.147 683.587, 946.953 663 C 945.634 650.620, 945.621 625.386, 946.930 616.500 C 948.093 608.599, 948.271 600.613, 947.359 597.210 C 947.022 595.950, 945.475 594.263, 943.923 593.460 C 940.732 591.810, 940.351 591.784, 937.315 593.007 M 1156.455 598.455 L 1154 600.909 1154 686.889 C 1154 737.382, 1154.383 773.878, 1154.929 775.312 C 1156.142 778.503, 1160.908 780.229, 1164.105 778.635 C 1168.800 776.294, 1168.970 774.826, 1168.985 736.361 L 1169 700.223 1172.250 699.608 C 1176.873 698.734, 1188.179 692.651, 1199.540 684.925 L 1203.579 682.178 1206.350 687.470 C 1207.874 690.381, 1212.581 697.032, 1216.810 702.252 C 1253.525 747.560, 1254.078 748.323, 1255.821 756.046 C 1258.481 767.836, 1264.564 773.481, 1270.453 769.623 C 1274.066 767.255, 1274.658 763.630, 1272.243 758.658 C 1271.132 756.371, 1269.678 752.138, 1269.012 749.251 C 1267.209 741.437, 1263.246 735.758, 1238.964 706.195 C 1220.909 684.215, 1217 678.426, 1217 673.671 C 1217 670.592, 1227.189 659.559, 1240 648.765 C 1253.089 637.736, 1276.760 613.160, 1277.522 609.809 C 1278.238 606.656, 1276.786 603.491, 1273.918 601.956 C 1269.638 599.665, 1266.407 601.756, 1254.293 614.657 C 1247.834 621.536, 1238.714 630.351, 1234.025 634.247 C 1229.336 638.143, 1219.389 647.444, 1211.919 654.915 C 1200.386 666.452, 1196.467 669.651, 1185.919 676.135 C 1179.089 680.334, 1172.502 684.072, 1171.281 684.442 L 1169.063 685.115 1168.781 642.468 L 1168.500 599.822 1166.139 597.911 C 1162.929 595.312, 1159.399 595.510, 1156.455 598.455 M 2019.894 597.188 C 2016.679 598.277, 2015.343 601.096, 2013.972 609.678 C 2013.386 613.343, 2012.697 616.682, 2012.439 617.098 C 2011.330 618.893, 2009.058 639.690, 2008.462 653.500 C 2008.107 661.750, 2007.592 669.625, 2007.319 671 C 2007.045 672.375, 2006.579 692.701, 2006.283 716.168 L 2005.745 758.836 2008.327 761.418 C 2011.582 764.673, 2015.371 764.720, 2018.545 761.545 L 2021 759.091 2021 727.035 C 2021 690.349, 2023.533 636.307, 2025.676 627.277 C 2026.109 625.449, 2027.522 627.117, 2033.630 636.670 C 2037.715 643.059, 2044.797 653.284, 2049.369 659.393 C 2058.331 671.369, 2061.233 675.416, 2069.166 687 C 2071.991 691.125, 2076.776 697.817, 2079.799 701.872 C 2091.148 717.092, 2102.308 734.579, 2107.166 744.751 C 2110.929 752.630, 2113.653 756.773, 2118.028 761.272 C 2123.433 766.830, 2124.113 767.227, 2127.170 766.616 C 2133.658 765.318, 2133.549 765.828, 2135.983 725.500 C 2136.581 715.600, 2137.797 701.200, 2138.687 693.500 C 2139.648 685.180, 2140.478 667.907, 2140.731 650.925 C 2141.089 626.920, 2140.904 621.482, 2139.576 616.925 C 2136.414 606.081, 2132.210 602.328, 2126.398 605.160 C 2122.231 607.190, 2121.453 610.909, 2124.019 616.541 C 2126.081 621.067, 2126.140 622.255, 2125.730 650.865 C 2125.464 669.406, 2124.677 685.928, 2123.628 695 C 2122.705 702.975, 2121.614 715.800, 2121.203 723.500 L 2120.456 737.500 2118.088 733 C 2114.542 726.264, 2101.878 707.054, 2092.048 693.500 C 2087.261 686.900, 2078.430 674.615, 2072.423 666.200 C 2066.415 657.784, 2058.658 646.984, 2055.185 642.200 C 2051.712 637.415, 2045.011 626.975, 2040.295 619 C 2035.579 611.025, 2030.771 603.044, 2029.610 601.265 C 2027.124 597.454, 2023.545 595.952, 2019.894 597.188 M 603.235 598.015 C 601.990 598.527, 600.570 600.002, 600.079 601.292 C 599.588 602.582, 598.923 633.082, 598.600 669.069 C 598.277 705.056, 597.744 739.353, 597.415 745.285 C 596.767 756.957, 597.671 760.126, 602.047 761.515 C 605.121 762.491, 609.681 760.228, 610.814 757.164 C 612.590 752.361, 614.039 705.455, 614.019 653.361 C 614.001 606.128, 613.866 602.064, 612.250 600.153 C 610.137 597.656, 606.314 596.749, 603.235 598.015 M 1736.736 597.692 C 1734.026 598.399, 1732.495 602.312, 1729.092 617.227 L 1725.959 630.954 1726.230 699.566 L 1726.500 768.177 1728.861 770.089 C 1732.267 772.846, 1736.424 772.547, 1738.927 769.365 C 1740.977 766.759, 1741 765.985, 1741.027 699.115 L 1741.054 631.500 1747.899 652 C 1751.664 663.275, 1756.869 679.250, 1759.465 687.500 C 1762.062 695.750, 1766.631 708.268, 1769.619 715.319 C 1772.607 722.369, 1776.434 732.944, 1778.124 738.819 C 1781.879 751.873, 1785.873 760.136, 1792.220 767.980 C 1794.876 771.262, 1797.909 775.956, 1798.961 778.410 C 1801.910 785.290, 1806.749 787.469, 1811.778 784.182 C 1812.976 783.400, 1816.525 774.813, 1824.461 753.500 C 1829.415 740.196, 1837.637 722.595, 1846.412 706.506 C 1849.113 701.553, 1853.739 693, 1856.691 687.500 C 1860.862 679.728, 1861.943 678.280, 1861.540 681 C 1856.984 711.782, 1855.037 734.503, 1854.903 758.461 L 1854.790 778.423 1857.451 780.711 C 1860.745 783.545, 1862.969 783.599, 1866.365 780.927 C 1868.907 778.928, 1869 778.492, 1869 768.538 C 1869 751.757, 1870.861 723.548, 1872.995 708 C 1874.089 700.025, 1875.890 686.525, 1876.997 678 C 1878.104 669.475, 1879.902 656.875, 1880.993 650 C 1883.244 635.819, 1883.560 622.655, 1881.735 619.079 C 1880.166 616.004, 1876.144 614.615, 1872.652 615.942 C 1869.007 617.328, 1866.415 622.001, 1864.932 629.860 C 1862.496 642.769, 1853.854 661.897, 1833.243 700 C 1825.092 715.069, 1813.060 741.048, 1810.086 750 C 1808.898 753.575, 1807.363 757.516, 1806.674 758.757 C 1805.441 760.980, 1805.365 760.940, 1801.728 756.171 C 1797.308 750.374, 1796.019 747.430, 1792.455 734.990 C 1790.960 729.770, 1786.936 718.750, 1783.514 710.500 C 1780.091 702.250, 1775.833 690.775, 1774.052 685 C 1772.271 679.225, 1767.758 665.050, 1764.023 653.500 C 1756.401 629.925, 1751.949 615.506, 1749.420 606.200 C 1747.267 598.277, 1743.691 595.878, 1736.736 597.692 M 311.794 599.558 C 310.007 600.522, 308.888 602.119, 308.502 604.259 C 308.180 606.042, 308.048 640.675, 308.209 681.223 L 308.500 754.945 310.694 757.139 C 313.344 759.788, 318.394 760.034, 320.798 757.632 C 322.310 756.121, 322.556 752.274, 323 723.216 L 323.500 690.500 374.167 690.500 C 402.035 690.500, 425.175 690.840, 425.590 691.256 C 426.005 691.671, 425.357 697.746, 424.151 704.756 C 422.945 711.765, 421.523 723.125, 420.991 730 C 420.460 736.875, 419.747 745.429, 419.407 749.009 C 418.881 754.551, 419.079 755.876, 420.739 757.926 C 424.203 762.204, 431.006 760.744, 433.085 755.276 C 433.567 754.008, 434.656 744.710, 435.504 734.614 C 436.352 724.518, 437.935 711.588, 439.023 705.881 C 440.812 696.490, 441 691.163, 441 649.825 L 441 604.145 438.365 602.073 C 436.916 600.933, 435.137 600, 434.412 600 C 431.549 600, 428.051 602.414, 427.144 605.016 C 426.619 606.523, 426.175 621.648, 426.158 638.628 C 426.141 655.607, 426.098 671.119, 426.063 673.099 L 426 676.697 420.404 675.820 C 417.327 675.337, 394.151 675.068, 368.904 675.221 L 322.999 675.500 323 639.806 C 323 604.189, 322.995 604.106, 320.750 601.637 C 317.798 598.389, 315.114 597.766, 311.794 599.558 M 1443.315 600.985 C 1442.114 601.481, 1440.651 602.783, 1440.065 603.878 C 1438.708 606.414, 1438.626 748.628, 1439.977 758 C 1441.518 768.701, 1438.044 768, 1489.538 768 L 1533.855 768 1535.927 765.365 C 1538.626 761.935, 1538.543 759.743, 1535.587 756.306 L 1533.173 753.500 1494.337 753.370 C 1472.976 753.299, 1455.171 753.187, 1454.769 753.120 C 1454.367 753.054, 1453.917 719.491, 1453.769 678.535 C 1453.477 597.561, 1453.792 601.822, 1448 600.608 C 1446.625 600.319, 1444.517 600.489, 1443.315 600.985 M 363.443 883.937 C 354.712 886.027, 343.374 897.434, 337.041 910.500 C 329.958 925.113, 327.008 940.192, 327.527 959.132 C 327.768 967.920, 328.516 972.258, 331.838 984.132 C 342.471 1022.141, 345.873 1025.972, 378.680 1036.899 C 386.831 1039.614, 397.325 1043.191, 402 1044.849 C 412.079 1048.424, 422.697 1049.697, 428.776 1048.060 C 440.457 1044.915, 453.416 1033.746, 459.373 1021.692 C 464.119 1012.086, 466 1001.976, 466 986.069 C 466 971.263, 464.886 967.068, 457.069 952.438 C 450.728 940.570, 435.770 918.775, 430 912.997 C 424.681 907.670, 416.668 903.252, 403.840 898.571 C 388.035 892.804, 387 892.250, 387 889.559 C 387 885.111, 382.760 882.986, 374.115 883.102 C 369.927 883.159, 365.124 883.534, 363.443 883.937 M 927.455 885.455 C 926.105 886.805, 925 888.658, 925 889.573 C 925 890.487, 923.622 892.805, 921.938 894.723 C 915.642 901.895, 909.431 919.564, 907.484 935.845 C 903.705 967.451, 902.854 1002.042, 905.677 1009.230 C 910.224 1020.804, 925.102 1038.076, 936.678 1045.220 C 949.609 1053.199, 966.883 1055.892, 975.500 1051.272 C 979.958 1048.882, 985.923 1043.517, 990.751 1037.556 C 992.507 1035.386, 994.109 1033.811, 994.310 1034.056 C 994.511 1034.300, 996.084 1036.585, 997.806 1039.134 C 1001.197 1044.153, 1004.323 1045.588, 1008.449 1044.020 C 1011.404 1042.896, 1013.359 1038.739, 1012.400 1035.618 C 1012.041 1034.453, 1009.780 1030.666, 1007.374 1027.201 L 1002.999 1020.903 1004.655 1017.701 C 1007.398 1012.400, 1009.041 1004.977, 1009.457 996 C 1010.208 979.818, 1007.986 971.804, 996 947.446 C 984.761 924.607, 967.831 902.157, 955.760 894.087 C 949.850 890.136, 934.465 883, 931.855 883 C 930.785 883, 928.805 884.105, 927.455 885.455 M 626 890.706 C 623.629 891.573, 619.944 895.242, 618.332 898.342 C 617.519 899.905, 615.766 905.980, 614.436 911.842 C 612.019 922.495, 612.018 922.531, 612.009 984.816 C 612 1047.192, 612.144 1050.061, 615.400 1052.235 C 617.642 1053.732, 622.693 1052.997, 624.595 1050.897 C 626.366 1048.941, 626.521 1046.653, 626.791 1018.397 C 626.985 998.171, 627.432 988, 628.125 988 C 628.698 988, 632.842 988.998, 637.333 990.218 C 644.157 992.071, 647.967 992.423, 660.500 992.359 C 674.068 992.290, 676.216 992.029, 683 989.629 C 693.039 986.078, 702.647 979.348, 709.914 970.778 C 727.218 950.373, 730.720 927.863, 718.289 916.949 C 711.599 911.075, 683.030 899.230, 660.577 893.021 C 651.304 890.457, 647.979 890.012, 638.577 890.079 C 632.484 890.122, 626.825 890.405, 626 890.706 M 2023.416 895.493 L 2020.924 897.985 2021.212 943.743 L 2021.500 989.500 2028.435 1003.430 C 2038.514 1023.676, 2047.907 1032.732, 2060.614 1034.456 C 2067.243 1035.356, 2072.245 1033.950, 2079.586 1029.123 C 2095.430 1018.708, 2098.803 1011.280, 2106.500 969.853 C 2110.076 950.608, 2109.516 934.841, 2104.795 921.836 C 2103.447 918.122, 2099.022 916.401, 2095.348 918.162 C 2091.085 920.205, 2090.332 923.709, 2092.326 932.233 C 2095.443 945.562, 2094.436 958.126, 2087.855 988 C 2083.947 1005.739, 2080.730 1011.280, 2070.594 1017.735 C 2060.983 1023.855, 2051.387 1016.852, 2040.811 996 L 2036.500 987.500 2036 942.161 L 2035.500 896.821 2033.139 894.911 C 2029.916 892.302, 2026.396 892.513, 2023.416 895.493 M 1508.500 895.182 C 1499.806 898.464, 1494.657 903.858, 1488.733 915.890 C 1485.898 921.649, 1485.493 923.548, 1485.156 932.654 C 1484.796 942.390, 1484.933 943.260, 1487.802 949.390 C 1491.318 956.904, 1498.122 967.209, 1502.196 971.192 C 1506.648 975.544, 1510.533 977.075, 1519.461 977.996 C 1527.709 978.847, 1540.696 982.499, 1552.905 987.401 C 1563.124 991.504, 1564 992.317, 1564 997.692 C 1564 1002.226, 1563.779 1002.555, 1554.750 1011.465 C 1545.452 1020.641, 1537.185 1027.304, 1531.365 1030.312 C 1527.222 1032.453, 1517.136 1032.727, 1513.395 1030.800 C 1511.803 1029.980, 1507.100 1027.552, 1502.944 1025.405 C 1489.231 1018.319, 1487.459 1017.681, 1484.345 1018.709 C 1481.075 1019.788, 1478.579 1024.097, 1479.515 1027.047 C 1480.276 1029.446, 1484.975 1034, 1486.689 1034 C 1487.355 1034, 1493.519 1036.925, 1500.388 1040.500 C 1512.463 1046.785, 1513.121 1047, 1520.257 1047 C 1530.561 1047, 1537.147 1044.770, 1546.390 1038.150 C 1557.828 1029.959, 1572.042 1016.159, 1575.532 1009.858 C 1578.135 1005.159, 1578.500 1003.507, 1578.500 996.427 C 1578.500 985.221, 1576.544 982.449, 1564.500 976.588 C 1551.438 970.231, 1535.039 964.991, 1524.041 963.660 C 1512.966 962.320, 1511.327 961.119, 1504.250 949.157 C 1500.171 942.262, 1500 941.643, 1500.012 933.737 C 1500.023 926.286, 1500.341 924.927, 1503.350 919.500 C 1508.503 910.205, 1510.955 909, 1524.714 909 C 1530.993 909, 1536.999 909.464, 1538.059 910.032 C 1539.267 910.678, 1540.236 912.622, 1540.654 915.238 C 1541.578 921.016, 1545.111 924.428, 1549.303 923.589 C 1554.174 922.615, 1555.507 920.655, 1555.449 914.551 C 1555.381 907.440, 1551.237 900.513, 1544.959 897.017 C 1540.859 894.733, 1539.333 894.514, 1526 894.291 C 1517.036 894.142, 1510.355 894.482, 1508.500 895.182 M 1761.635 899.073 C 1757.973 901.953, 1757.991 907.061, 1761.674 909.958 C 1763.736 911.580, 1765.623 912.028, 1769.924 911.918 C 1780.871 911.638, 1780.281 911.319, 1779.486 917.102 C 1779.100 919.908, 1778.788 947.611, 1778.792 978.663 C 1778.800 1042.091, 1778.431 1039, 1786 1039 C 1793.267 1039, 1792.889 1042.245, 1793.212 976.964 C 1793.463 926.001, 1793.705 918.051, 1795.094 915 L 1796.689 911.500 1807.594 911.593 C 1820.053 911.699, 1823.259 910.922, 1824.862 907.403 C 1826.452 903.913, 1826.301 902.652, 1823.927 899.635 L 1821.855 897 1793.062 897 C 1765.448 897, 1764.162 897.085, 1761.635 899.073 M 365.446 898.959 C 362.327 900.222, 353.206 910.660, 350.424 916.150 C 343.380 930.051, 340.184 954.932, 343.402 970.815 C 345.711 982.207, 353.321 1004.412, 356.478 1008.968 C 359.982 1014.025, 365.758 1016.972, 385.138 1023.591 C 419.629 1035.371, 422.443 1035.847, 430.624 1031.275 C 440.514 1025.749, 446.414 1017.909, 449.423 1006.296 C 451.617 997.832, 451.577 977.049, 449.355 970.528 C 446.942 963.447, 439.832 951.212, 429.704 936.714 C 420.876 924.078, 417.834 920.943, 411 917.444 C 405.341 914.546, 384.843 906.884, 380.500 906.043 C 374.543 904.890, 373.303 904.146, 371.970 900.928 C 370.737 897.951, 369.131 897.466, 365.446 898.959 M 1184.200 900.050 C 1182.883 900.578, 1180.959 903.009, 1179.700 905.736 C 1177.511 910.475, 1177.498 910.855, 1177.205 978.558 C 1176.910 1046.578, 1176.911 1046.618, 1179.028 1049.308 C 1181.939 1053.009, 1187.040 1053.036, 1189.927 1049.365 C 1191.929 1046.821, 1192 1045.600, 1192 1013.844 L 1192 980.958 1203.750 991.142 C 1210.213 996.743, 1215.725 1001.602, 1216 1001.939 C 1216.275 1002.276, 1219.875 1005.469, 1224 1009.035 C 1240.195 1023.035, 1252.925 1035.391, 1271.612 1055.250 C 1281.043 1065.273, 1283.117 1067, 1285.723 1067 C 1290.013 1067, 1293.333 1064.034, 1293.333 1060.203 C 1293.333 1057.659, 1291.583 1055.204, 1283.716 1046.708 C 1262.629 1023.936, 1245.636 1007.816, 1214.587 981.127 C 1211.789 978.723, 1209.384 976.463, 1209.243 976.107 C 1209.102 975.750, 1211.942 974.898, 1215.555 974.213 C 1228.789 971.702, 1240.928 962.995, 1246.486 952.027 C 1251.949 941.246, 1249.285 927.282, 1240.132 918.720 C 1231.595 910.735, 1214.622 902.141, 1203.229 900.035 C 1196.457 898.783, 1187.339 898.790, 1184.200 900.050 M 935.827 903.831 C 933.807 904.732, 931.416 906.719, 930.513 908.247 C 928.205 912.154, 924.241 924.145, 923.041 930.848 C 921.272 940.728, 919 973.613, 919 989.337 L 919 1004.517 923.226 1011.008 C 928.294 1018.793, 939.041 1029.662, 945.293 1033.326 C 950.249 1036.230, 959.640 1039, 964.532 1039 C 968.580 1039, 973.600 1035.155, 979.960 1027.184 C 984.403 1021.616, 984.863 1020.609, 983.848 1018.684 C 981.081 1013.438, 974.389 1004.394, 967.976 997.236 C 962.444 991.061, 961.041 988.844, 961.023 986.250 C 960.974 979.269, 968.756 976.534, 973.827 981.750 C 979.868 987.965, 988.628 998.378, 990.500 1001.570 C 991.600 1003.446, 992.779 1004.985, 993.119 1004.990 C 994.024 1005.005, 994.976 998.342, 994.989 991.910 C 995.007 982.996, 991.482 971.585, 984.056 956.514 C 971.850 931.739, 955.042 909.633, 944.210 904.107 C 941.938 902.948, 939.949 902.043, 939.790 902.096 C 939.630 902.149, 937.847 902.929, 935.827 903.831 M 629.149 913.358 C 627.232 921.004, 627 924.665, 627 947.314 L 627 972.700 639.260 975.350 C 660.913 980.031, 676.046 978.671, 688.055 970.965 C 699.353 963.715, 711 945.626, 711 935.329 C 711 930.589, 710.697 929.879, 707.750 927.711 C 701.953 923.446, 683.566 915.713, 665 909.731 C 654.551 906.365, 650.760 905.629, 641.899 905.247 L 631.299 904.789 629.149 913.358 M 1192.667 914.667 C 1191.945 915.388, 1191.717 965, 1192.435 965 C 1192.674 965, 1194.137 964.503, 1195.685 963.895 C 1197.233 963.287, 1202.467 961.945, 1207.314 960.913 C 1222.207 957.743, 1227.846 954.485, 1232.685 946.259 C 1234.751 942.747, 1235.059 941.287, 1234.480 937.759 C 1233.576 932.252, 1227.207 925.916, 1217.408 920.777 C 1207.623 915.644, 1194.845 912.489, 1192.667 914.667 M 1297.376 1145.241 C 1296.208 1145.933, 1291.708 1149.337, 1287.376 1152.805 C 1267.815 1168.464, 1262.726 1172.519, 1250.932 1181.846 C 1244.020 1187.313, 1234.237 1195.847, 1229.192 1200.811 C 1223.354 1206.556, 1218.936 1210.075, 1217.040 1210.491 C 1215.401 1210.851, 1213.194 1212.335, 1212.135 1213.789 L 1210.209 1216.433 1202.561 1209.587 C 1183.431 1192.466, 1161.311 1165.064, 1159.507 1156.251 C 1158.250 1150.115, 1151.820 1148.089, 1147.455 1152.455 C 1142.947 1156.962, 1144.316 1162.603, 1153.087 1175.670 C 1164.268 1192.326, 1184.968 1214.745, 1202.250 1228.915 C 1206.513 1232.410, 1210.026 1235.996, 1210.059 1236.885 C 1210.091 1237.773, 1210.108 1255.825, 1210.097 1277 C 1210.084 1301.518, 1210.457 1316.468, 1211.124 1318.164 C 1213.188 1323.414, 1221.315 1324.016, 1223.939 1319.114 C 1224.641 1317.802, 1225 1302.167, 1225 1272.904 L 1225 1228.676 1227.457 1224.588 C 1232.297 1216.536, 1244.197 1205.920, 1280.500 1177.266 C 1306.546 1156.708, 1307.400 1155.892, 1307.400 1151.572 C 1307.400 1149.592, 1306.748 1147.332, 1305.950 1146.552 C 1303.784 1144.431, 1299.775 1143.818, 1297.376 1145.241 M 688.684 1151.427 C 683.776 1153.205, 681.492 1155.283, 677.306 1161.776 C 665.405 1180.237, 653.876 1216.920, 642.978 1271 C 640.254 1284.517, 639.875 1285.400, 638.932 1280.414 C 637.613 1273.434, 625.569 1243.806, 614.779 1221 C 602.227 1194.470, 599.691 1187.829, 599.078 1179.898 C 598.298 1169.801, 595.019 1166.052, 588.850 1168.202 C 582.263 1170.498, 582.270 1183.881, 588.864 1199.307 C 592.876 1208.693, 594.452 1212.153, 603.974 1232.500 C 608.100 1241.315, 615.100 1257.831, 620.395 1271.242 C 623.734 1279.698, 627.606 1296.694, 629.003 1309.024 C 629.591 1314.214, 630.705 1319.427, 631.478 1320.607 C 634.805 1325.684, 642.492 1323.876, 645.889 1317.217 C 649.481 1310.177, 651.725 1301.500, 659.004 1266.500 C 665.183 1236.789, 669.894 1218.084, 675.121 1202.500 C 679.722 1188.783, 689.865 1167.500, 691.801 1167.500 C 697.787 1167.500, 732.192 1276.890, 742.048 1327.261 C 743.616 1335.274, 745.753 1338, 750.466 1338 C 752.936 1338, 754.417 1337.285, 755.927 1335.365 C 757.762 1333.033, 758.002 1331.340, 758.020 1320.615 C 758.053 1300.350, 761.757 1281.975, 769.735 1262.500 C 772.214 1256.450, 775.707 1247.900, 777.498 1243.500 C 779.289 1239.100, 781.683 1233.475, 782.819 1231 C 786.853 1222.208, 792.045 1208.468, 794.099 1201.148 C 796.140 1193.872, 796.145 1193.671, 794.310 1191.214 C 791.761 1187.800, 789.002 1186.959, 785.363 1188.489 C 782.774 1189.578, 781.983 1190.854, 780.004 1197.133 C 777.365 1205.506, 772.857 1217.426, 769.898 1223.852 C 768.179 1227.585, 764.309 1236.869, 757.539 1253.500 C 756.643 1255.700, 755.478 1258.400, 754.950 1259.500 C 753.087 1263.380, 748 1279.401, 748 1281.388 C 748 1286.078, 745.939 1280.315, 740.530 1260.500 C 737.377 1248.950, 730.841 1227.575, 726.005 1213 C 707.446 1157.060, 701.267 1146.866, 688.684 1151.427 M 439.312 1164.245 C 435.338 1167.068, 431.677 1172.617, 403.515 1218.500 C 400.139 1224, 396.090 1230.525, 394.518 1233 C 390.091 1239.966, 379.685 1261.279, 374.569 1273.860 C 372.028 1280.108, 369.320 1286.408, 368.552 1287.860 C 366.987 1290.815, 367.083 1290.965, 364.499 1281.500 C 361.371 1270.045, 349.107 1243.349, 336.706 1221 C 333.105 1214.509, 326.134 1200.561, 322.964 1193.500 C 321.729 1190.750, 319.813 1186.475, 318.705 1184 C 317.598 1181.525, 316.365 1176.645, 315.965 1173.155 C 315.164 1166.156, 313.949 1164.340, 309.471 1163.444 C 307.268 1163.004, 305.740 1163.417, 303.734 1164.994 C 301.382 1166.844, 301.001 1167.869, 301.006 1172.323 C 301.012 1178.570, 302.214 1183.155, 305.985 1191.329 C 307.551 1194.723, 310.333 1200.875, 312.167 1205 C 314 1209.125, 320.529 1221.950, 326.675 1233.500 C 338.238 1255.228, 347.880 1276.238, 350.443 1285.290 C 351.254 1288.156, 352.199 1293.425, 352.542 1297 C 353.395 1305.866, 355.593 1312.353, 358.971 1315.969 C 362.350 1319.586, 365.650 1319.850, 369.514 1316.810 C 372.479 1314.478, 379.961 1299.559, 387.719 1280.511 C 390.186 1274.455, 395.012 1263.848, 398.444 1256.941 C 404.446 1244.862, 407.297 1240.033, 422.027 1217 C 425.720 1211.225, 432.229 1200.650, 436.491 1193.500 C 440.752 1186.350, 446.060 1178.607, 448.286 1176.292 C 453.107 1171.281, 453.740 1166.827, 450.056 1163.844 C 447.006 1161.375, 443.149 1161.519, 439.312 1164.245 M 876.566 1167.343 C 871.811 1172.098, 872.573 1173.882, 890.479 1199.904 C 900.625 1214.650, 909.082 1225.863, 924.774 1245.377 C 932.830 1255.394, 932.479 1254.571, 930.035 1257.716 C 928.846 1259.247, 919.441 1269.050, 909.136 1279.500 C 889.059 1299.860, 886 1304.188, 886 1312.234 C 886 1318.254, 886.665 1319.775, 890.065 1321.534 C 895.259 1324.220, 899.463 1321.199, 900.848 1313.784 C 901.311 1311.308, 902.382 1308.292, 903.229 1307.083 C 906.515 1302.392, 942.333 1266.938, 943.020 1267.697 C 946.294 1271.315, 956.830 1284.133, 962.585 1291.500 C 972.201 1303.808, 977.012 1311.080, 981.774 1320.500 C 986.363 1329.579, 988.937 1332.695, 992.615 1333.618 C 998.882 1335.191, 1003.327 1326.639, 999.167 1321.011 C 998.076 1319.536, 995.278 1314.590, 992.949 1310.019 C 988.378 1301.048, 973.235 1280.261, 960.153 1265 C 955.674 1259.775, 952.008 1255.128, 952.005 1254.674 C 952.002 1254.220, 953.950 1251.295, 956.334 1248.174 C 962.458 1240.155, 973.674 1221.514, 981.796 1205.855 C 989.903 1190.222, 992.278 1185.956, 995.573 1181.107 C 996.908 1179.143, 998 1176.495, 998 1175.222 C 998 1172.571, 993.874 1168, 991.480 1168 C 989.375 1168, 985.829 1169.915, 984.233 1171.913 C 981.940 1174.786, 975.372 1186.296, 968.777 1199 C 961.429 1213.154, 952.874 1227.548, 946.347 1236.737 L 941.917 1242.975 939.148 1239.737 C 927.552 1226.178, 908.270 1200.155, 895.998 1181.500 C 885.512 1165.560, 885.953 1166.080, 882.316 1165.385 C 879.752 1164.895, 878.633 1165.276, 876.566 1167.343 M 1455.073 1167.635 C 1453.933 1169.084, 1453 1171.048, 1453 1172 C 1453 1172.952, 1453.933 1174.916, 1455.073 1176.365 L 1457.145 1179 1484.323 1179.009 C 1499.270 1179.013, 1513.890 1179.304, 1516.810 1179.655 L 1522.120 1180.293 1508.264 1194.396 C 1491.957 1210.994, 1488.086 1215.498, 1472.788 1235.673 C 1450.453 1265.127, 1427.422 1304.076, 1426.264 1314.350 C 1425.835 1318.157, 1426.159 1319.146, 1428.803 1322.107 L 1431.834 1325.500 1492.167 1326.198 C 1549.375 1326.859, 1552.630 1326.802, 1555 1325.090 C 1556.908 1323.712, 1557.500 1322.388, 1557.500 1319.500 C 1557.500 1312.691, 1556.023 1312.281, 1529 1311.602 C 1516.075 1311.277, 1491.449 1311.008, 1474.275 1311.005 L 1443.050 1311 1444.066 1308.326 C 1449.481 1294.085, 1480.627 1247.886, 1501.253 1223.500 C 1511.674 1211.180, 1529.250 1193.969, 1537.686 1187.823 C 1546.581 1181.343, 1548.236 1178.399, 1546.008 1173.020 C 1543.398 1166.718, 1531.628 1165.042, 1489.823 1165.018 L 1457.145 1165 1455.073 1167.635 " stroke="none" fill="black" fill-rule="evenodd"/>
</svg>